<svg width="202" height="242" viewBox="0 0 202 242" fill="none" xmlns="http://www.w3.org/2000/svg">
<path d="M202 80.5591C202 59.1935 193.513 38.703 178.405 23.5952C163.297 8.48745 142.806 0 121.441 0L0 0V241.566H202L156.728 152.986C170.304 146.37 181.747 136.072 189.751 123.266C197.756 110.459 202 95.6613 202 80.5591ZM53.6776 75.2119H41.2405V104.511H30.5118V75.2119H18.0748V65.773H53.6776V75.2119ZM41.2918 56.7698L33.5015 45.0502H28.8035V56.7698H18.0748V18.0748H36.3716C42.2912 18.0748 46.3828 19.6209 48.9795 22.2774C51.2432 24.4898 52.3963 27.4709 52.3963 31.2892V31.4002C52.3963 37.3112 49.2443 41.2405 44.4352 43.2821L53.6776 56.7698H41.2918ZM90.6301 104.511H59.2299V65.773H90.3567V74.93H69.8561V80.7898H88.4263V89.2463H69.8475V95.3879H90.6301V104.511ZM90.6301 56.7698H59.2299V18.0748H90.3567V27.1976H69.8561V33.0573H88.4263V41.5139H69.8475V47.647H90.6301V56.7698ZM123.089 104.511L115.684 92.8425L108.218 104.511H96.1823L109.448 84.8643L96.7376 65.773H109.064L115.897 76.664L122.825 65.773H134.877L122.15 84.7191L135.416 104.511H123.089Z" fill="black" fill-opacity="0.9"/>
</svg>
