<svg width="24" height="24" viewBox="0 0 29 30" fill="none" xmlns="http://www.w3.org/2000/svg">
<g filter="url(#filter0_d_20_5974)">
<path d="M17 5.256C16.3465 5.08819 15.6747 5.0022 15 5C14.327 5.00098 13.6561 5.07712 13 5.227M23.098 10C23.67 11.068 24 12.24 24 13.444C24 17.89 19.97 21 15 21C10.03 21 6 18 6 13.444C6 12.193 6.288 11.034 6.792 10" stroke="black" stroke-width="2" stroke-linecap="round" stroke-linejoin="round"/>
<path d="M6.75006 9.99998C6.75006 9.99998 5.11006 3.57998 6.50006 2.99998C7.89006 2.41998 11.0001 2.99998 12.7811 4.99998" stroke="black" stroke-width="2" stroke-linecap="round" stroke-linejoin="round"/>
<path d="M23.172 10.0019C23.172 10.0019 24.812 3.58193 23.422 3.00193C22.032 2.42193 18.922 3.00193 17.14 5.00193" stroke="black" stroke-width="2" stroke-linecap="round" stroke-linejoin="round"/>
<path d="M11 14V14.5" stroke="black" stroke-width="2" stroke-linecap="round" stroke-linejoin="round"/>
<path d="M19 14V14.5" stroke="black" stroke-width="2" stroke-linecap="round" stroke-linejoin="round"/>
<path d="M14.25 16.25H15.75L15 17L14.25 16.25Z" stroke="black" stroke-width="2" stroke-linecap="round" stroke-linejoin="round"/>
</g>
</svg>
