<svg width="351" height="316" viewBox="0 0 351 316" fill="none" xmlns="http://www.w3.org/2000/svg">
<rect x="0.5" y="0.5" width="350" height="315" rx="15.5" fill="white"/>
<rect x="0.5" y="0.5" width="350" height="315" rx="15.5" stroke="#EDEDED"/>
<path fill-rule="evenodd" clip-rule="evenodd" d="M42.5 19C42.5 23.4183 38.9183 27 34.5 27C30.0817 27 26.5 23.4183 26.5 19C26.5 14.5817 30.0817 11 34.5 11C38.9183 11 42.5 14.5817 42.5 19ZM44.5 19C44.5 24.5228 40.0228 29 34.5 29C28.9772 29 24.5 24.5228 24.5 19C24.5 13.4772 28.9772 9 34.5 9C40.0228 9 44.5 13.4772 44.5 19ZM33.7719 15.2903C34.1639 15.6794 34.1662 16.3126 33.7771 16.7045L32.535 17.9556L38.5014 17.9556C39.0536 17.9556 39.5014 18.4034 39.5014 18.9556C39.5014 19.5079 39.0536 19.9556 38.5014 19.9556L32.447 19.9556L33.7771 21.2955C34.1662 21.6874 34.1639 22.3206 33.7719 22.7097C33.38 23.0988 32.7468 23.0965 32.3577 22.7045L30.0789 20.409C29.3047 19.6292 29.3047 18.3708 30.0789 17.591L32.3577 15.2955C32.7468 14.9035 33.38 14.9012 33.7719 15.2903Z" fill="black"/>
<rect width="93" height="20" transform="translate(129 9)" fill="white"/>
<path d="M130.549 25V13.72H131.701L136.229 23.944H135.765L140.293 13.72H141.445V25H140.229V15.432H140.709L136.437 25H135.557L131.269 15.432H131.749V25H130.549ZM147.179 25.144C146.465 25.144 145.841 24.9787 145.307 24.648C144.774 24.3067 144.358 23.8267 144.059 23.208C143.771 22.5893 143.627 21.848 143.627 20.984C143.627 20.1093 143.771 19.3627 144.059 18.744C144.358 18.1253 144.774 17.6507 145.307 17.32C145.841 16.9893 146.465 16.824 147.179 16.824C147.905 16.824 148.529 17.0107 149.051 17.384C149.585 17.7467 149.937 18.2427 150.107 18.872H149.915L150.091 16.968H151.339C151.307 17.2773 151.275 17.592 151.243 17.912C151.222 18.2213 151.211 18.5253 151.211 18.824V25H149.915V23.112H150.091C149.921 23.7413 149.569 24.2373 149.035 24.6C148.502 24.9627 147.883 25.144 147.179 25.144ZM147.435 24.088C148.203 24.088 148.811 23.8267 149.259 23.304C149.707 22.7707 149.931 21.9973 149.931 20.984C149.931 19.96 149.707 19.1867 149.259 18.664C148.811 18.1307 148.203 17.864 147.435 17.864C146.678 17.864 146.07 18.1307 145.611 18.664C145.163 19.1867 144.939 19.96 144.939 20.984C144.939 21.9973 145.163 22.7707 145.611 23.304C146.07 23.8267 146.678 24.088 147.435 24.088ZM153.685 25V18.904C153.685 18.584 153.674 18.2587 153.653 17.928C153.642 17.5973 153.621 17.2773 153.589 16.968H154.837L154.997 18.92L154.773 18.936C154.88 18.456 155.066 18.0613 155.333 17.752C155.6 17.4427 155.914 17.2133 156.277 17.064C156.64 16.904 157.018 16.824 157.413 16.824C157.573 16.824 157.712 16.8293 157.829 16.84C157.957 16.8507 158.074 16.8773 158.181 16.92L158.165 18.072C158.005 18.0187 157.856 17.9867 157.717 17.976C157.589 17.9547 157.44 17.944 157.269 17.944C156.8 17.944 156.389 18.056 156.037 18.28C155.696 18.504 155.434 18.792 155.253 19.144C155.082 19.496 154.997 19.8693 154.997 20.264V25H153.685ZM162.812 25.144C162.023 25.144 161.335 24.9733 160.748 24.632C160.172 24.2907 159.724 23.8053 159.404 23.176C159.095 22.5467 158.94 21.8 158.94 20.936C158.94 20.0613 159.1 19.32 159.42 18.712C159.74 18.0933 160.188 17.624 160.764 17.304C161.351 16.984 162.033 16.824 162.812 16.824C163.324 16.824 163.82 16.9147 164.3 17.096C164.791 17.2773 165.196 17.5333 165.516 17.864L165.052 18.792C164.732 18.4827 164.38 18.2533 163.996 18.104C163.623 17.9547 163.255 17.88 162.892 17.88C162.06 17.88 161.415 18.1413 160.956 18.664C160.497 19.1867 160.268 19.9493 160.268 20.952C160.268 21.944 160.497 22.712 160.956 23.256C161.415 23.8 162.06 24.072 162.892 24.072C163.244 24.072 163.607 24.0027 163.98 23.864C164.364 23.7253 164.721 23.496 165.052 23.176L165.516 24.088C165.185 24.4293 164.775 24.6907 164.284 24.872C163.793 25.0533 163.303 25.144 162.812 25.144ZM167.358 25V13.224H168.654V18.744H168.446C168.67 18.1147 169.043 17.64 169.566 17.32C170.099 16.9893 170.712 16.824 171.406 16.824C172.366 16.824 173.08 17.0853 173.55 17.608C174.019 18.12 174.254 18.8987 174.254 19.944V25H172.958V20.024C172.958 19.2773 172.808 18.7333 172.51 18.392C172.222 18.0507 171.752 17.88 171.102 17.88C170.355 17.88 169.758 18.1093 169.31 18.568C168.872 19.0267 168.654 19.6293 168.654 20.376V25H167.358ZM177.149 26.824L176.541 26.36C176.829 26.0613 177.015 25.7787 177.101 25.512C177.197 25.256 177.245 24.9947 177.245 24.728L177.533 25H176.477V23.368H178.109V24.52C178.109 24.9467 178.039 25.3467 177.901 25.72C177.762 26.104 177.511 26.472 177.149 26.824ZM184.748 25V23.48L188.492 19.576C188.961 19.0853 189.308 18.632 189.532 18.216C189.756 17.8 189.868 17.3733 189.868 16.936C189.868 16.392 189.697 15.9813 189.356 15.704C189.015 15.4267 188.519 15.288 187.868 15.288C187.345 15.288 186.844 15.384 186.364 15.576C185.884 15.7573 185.415 16.0453 184.956 16.44L184.284 14.904C184.743 14.4987 185.308 14.1733 185.98 13.928C186.663 13.6827 187.377 13.56 188.124 13.56C189.34 13.56 190.273 13.832 190.924 14.376C191.575 14.92 191.9 15.6987 191.9 16.712C191.9 17.416 191.735 18.088 191.404 18.728C191.073 19.3573 190.561 20.0187 189.868 20.712L186.748 23.832V23.288H192.348V25H184.748ZM197.894 25.16C196.571 25.16 195.552 24.6587 194.838 23.656C194.123 22.6427 193.766 21.2027 193.766 19.336C193.766 17.448 194.123 16.0133 194.838 15.032C195.552 14.0507 196.571 13.56 197.894 13.56C199.227 13.56 200.246 14.0507 200.95 15.032C201.664 16.0133 202.022 17.4427 202.022 19.32C202.022 21.1973 201.664 22.6427 200.95 23.656C200.246 24.6587 199.227 25.16 197.894 25.16ZM197.894 23.464C198.619 23.464 199.158 23.1333 199.51 22.472C199.862 21.8 200.038 20.7493 200.038 19.32C200.038 17.8907 199.862 16.856 199.51 16.216C199.158 15.5653 198.619 15.24 197.894 15.24C197.179 15.24 196.64 15.5653 196.278 16.216C195.926 16.856 195.75 17.8907 195.75 19.32C195.75 20.7493 195.926 21.8 196.278 22.472C196.64 23.1333 197.179 23.464 197.894 23.464ZM203.936 25V23.48L207.68 19.576C208.149 19.0853 208.496 18.632 208.72 18.216C208.944 17.8 209.056 17.3733 209.056 16.936C209.056 16.392 208.885 15.9813 208.544 15.704C208.202 15.4267 207.706 15.288 207.056 15.288C206.533 15.288 206.032 15.384 205.552 15.576C205.072 15.7573 204.602 16.0453 204.144 16.44L203.472 14.904C203.93 14.4987 204.496 14.1733 205.168 13.928C205.85 13.6827 206.565 13.56 207.312 13.56C208.528 13.56 209.461 13.832 210.112 14.376C210.762 14.92 211.088 15.6987 211.088 16.712C211.088 17.416 210.922 18.088 210.592 18.728C210.261 19.3573 209.749 20.0187 209.056 20.712L205.936 23.832V23.288H211.536V25H203.936ZM217.977 25V22.792H212.937V21.352L218.297 13.72H219.961V21.224H221.577V22.792H219.961V25H217.977ZM217.977 21.224V16.152H218.361L214.473 21.704V21.224H217.977Z" fill="black"/>
<path fill-rule="evenodd" clip-rule="evenodd" d="M308.5 19C308.5 23.4183 312.082 27 316.5 27C320.918 27 324.5 23.4183 324.5 19C324.5 14.5817 320.918 11 316.5 11C312.082 11 308.5 14.5817 308.5 19ZM306.5 19C306.5 24.5228 310.977 29 316.5 29C322.023 29 326.5 24.5228 326.5 19C326.5 13.4772 322.023 9 316.5 9C310.977 9 306.5 13.4772 306.5 19ZM317.228 15.2903C316.836 15.6794 316.834 16.3126 317.223 16.7045L318.465 17.9556L312.499 17.9556C311.946 17.9556 311.499 18.4034 311.499 18.9556C311.499 19.5079 311.946 19.9556 312.499 19.9556L318.553 19.9556L317.223 21.2955C316.834 21.6874 316.836 22.3206 317.228 22.7097C317.62 23.0988 318.253 23.0965 318.642 22.7045L320.921 20.409C321.695 19.6292 321.695 18.3708 320.921 17.591L318.642 15.2955C318.253 14.9035 317.62 14.9012 317.228 15.2903Z" fill="black"/>
<path d="M22.799 73V61.72H23.951L28.479 71.944H28.015L32.543 61.72H33.695V73H32.479V63.432H32.959L28.687 73H27.807L23.519 63.432H23.999V73H22.799ZM39.6694 73.144C38.9014 73.144 38.2294 72.9787 37.6534 72.648C37.088 72.3067 36.6507 71.8267 36.3414 71.208C36.032 70.5787 35.8774 69.8373 35.8774 68.984C35.8774 68.12 36.032 67.3787 36.3414 66.76C36.6507 66.1413 37.088 65.6667 37.6534 65.336C38.2294 64.9947 38.9014 64.824 39.6694 64.824C40.448 64.824 41.12 64.9947 41.6854 65.336C42.2614 65.6667 42.704 66.1413 43.0134 66.76C43.3334 67.3787 43.4934 68.12 43.4934 68.984C43.4934 69.8373 43.3334 70.5787 43.0134 71.208C42.704 71.8267 42.2614 72.3067 41.6854 72.648C41.12 72.9787 40.448 73.144 39.6694 73.144ZM39.6694 72.088C40.4374 72.088 41.0454 71.8267 41.4934 71.304C41.9414 70.7707 42.1654 69.9973 42.1654 68.984C42.1654 67.96 41.936 67.1867 41.4774 66.664C41.0294 66.1307 40.4267 65.864 39.6694 65.864C38.912 65.864 38.3094 66.1307 37.8614 66.664C37.4134 67.1867 37.1894 67.96 37.1894 68.984C37.1894 69.9973 37.4134 70.7707 37.8614 71.304C38.3094 71.8267 38.912 72.088 39.6694 72.088ZM45.514 73V66.824C45.514 66.5253 45.498 66.2213 45.466 65.912C45.4447 65.592 45.418 65.2773 45.386 64.968H46.634L46.794 66.728H46.602C46.8367 66.1093 47.21 65.64 47.722 65.32C48.2447 64.9893 48.8473 64.824 49.53 64.824C50.4793 64.824 51.194 65.08 51.674 65.592C52.1647 66.0933 52.41 66.888 52.41 67.976V73H51.114V68.056C51.114 67.2987 50.9593 66.7493 50.65 66.408C50.3513 66.056 49.882 65.88 49.242 65.88C48.4953 65.88 47.9033 66.1093 47.466 66.568C47.0287 67.0267 46.81 67.64 46.81 68.408V73H45.514Z" fill="#5C5C5C"/>
<path d="M74.4253 73V62.84H70.4413V61.72H79.7213V62.84H75.7533V73H74.4253ZM82.8773 73.144C81.9279 73.144 81.2079 72.8827 80.7173 72.36C80.2373 71.8373 79.9973 71.0373 79.9973 69.96V64.968H81.2933V69.928C81.2933 70.664 81.4426 71.208 81.7413 71.56C82.0399 71.9013 82.5039 72.072 83.1333 72.072C83.8373 72.072 84.4026 71.8427 84.8293 71.384C85.2559 70.9253 85.4693 70.312 85.4693 69.544V64.968H86.7653V73H85.5013V71.192H85.7093C85.4853 71.8107 85.1226 72.2907 84.6213 72.632C84.1306 72.9733 83.5493 73.144 82.8773 73.144ZM92.8476 73.144C91.589 73.144 90.597 72.7813 89.8716 72.056C89.1463 71.32 88.7836 70.3013 88.7836 69C88.7836 68.1573 88.9436 67.4267 89.2636 66.808C89.5836 66.1787 90.0316 65.6933 90.6076 65.352C91.1836 65 91.845 64.824 92.5916 64.824C93.3276 64.824 93.9463 64.9787 94.4476 65.288C94.949 65.5973 95.333 66.04 95.5996 66.616C95.8663 67.1813 95.9996 67.8533 95.9996 68.632V69.112H89.7756V68.296H95.1516L94.8796 68.504C94.8796 67.6507 94.6876 66.984 94.3036 66.504C93.9196 66.024 93.349 65.784 92.5916 65.784C91.7916 65.784 91.1676 66.0667 90.7196 66.632C90.2716 67.1867 90.0476 67.9387 90.0476 68.888V69.032C90.0476 70.0347 90.293 70.7973 90.7836 71.32C91.285 71.832 91.9836 72.088 92.8796 72.088C93.3596 72.088 93.8076 72.0187 94.2236 71.88C94.6503 71.7307 95.0556 71.4907 95.4396 71.16L95.8876 72.072C95.5356 72.4133 95.0876 72.68 94.5436 72.872C94.0103 73.0533 93.445 73.144 92.8476 73.144Z" fill="#5C5C5C"/>
<path d="M116.402 73L112.466 61.72H113.858L117.298 71.88H116.738L120.354 61.72H121.41L124.834 71.88H124.322L127.858 61.72H129.17L125.202 73H124.018L120.69 63.224H121.026L117.554 73H116.402ZM133.613 73.144C132.355 73.144 131.363 72.7813 130.637 72.056C129.912 71.32 129.549 70.3013 129.549 69C129.549 68.1573 129.709 67.4267 130.029 66.808C130.349 66.1787 130.797 65.6933 131.373 65.352C131.949 65 132.611 64.824 133.357 64.824C134.093 64.824 134.712 64.9787 135.213 65.288C135.715 65.5973 136.099 66.04 136.365 66.616C136.632 67.1813 136.765 67.8533 136.765 68.632V69.112H130.541V68.296H135.917L135.645 68.504C135.645 67.6507 135.453 66.984 135.069 66.504C134.685 66.024 134.115 65.784 133.357 65.784C132.557 65.784 131.933 66.0667 131.485 66.632C131.037 67.1867 130.813 67.9387 130.813 68.888V69.032C130.813 70.0347 131.059 70.7973 131.549 71.32C132.051 71.832 132.749 72.088 133.645 72.088C134.125 72.088 134.573 72.0187 134.989 71.88C135.416 71.7307 135.821 71.4907 136.205 71.16L136.653 72.072C136.301 72.4133 135.853 72.68 135.309 72.872C134.776 73.0533 134.211 73.144 133.613 73.144ZM141.788 73.144C141.084 73.144 140.466 72.9787 139.932 72.648C139.399 72.3067 138.983 71.8267 138.684 71.208C138.396 70.5893 138.252 69.848 138.252 68.984C138.252 68.1093 138.396 67.3627 138.684 66.744C138.983 66.1253 139.399 65.6507 139.932 65.32C140.466 64.9893 141.084 64.824 141.788 64.824C142.514 64.824 143.138 65.0053 143.66 65.368C144.194 65.7307 144.551 66.2213 144.732 66.84H144.54V61.224H145.836V73H144.556V71.08H144.732C144.562 71.72 144.21 72.2267 143.676 72.6C143.143 72.9627 142.514 73.144 141.788 73.144ZM142.06 72.088C142.818 72.088 143.426 71.8267 143.884 71.304C144.343 70.7707 144.572 69.9973 144.572 68.984C144.572 67.96 144.343 67.1867 143.884 66.664C143.426 66.1307 142.818 65.864 142.06 65.864C141.303 65.864 140.695 66.1307 140.236 66.664C139.788 67.1867 139.564 67.96 139.564 68.984C139.564 69.9973 139.788 70.7707 140.236 71.304C140.695 71.8267 141.303 72.088 142.06 72.088Z" fill="#5C5C5C"/>
<path d="M165.511 73V62.84H161.527V61.72H170.807V62.84H166.839V73H165.511ZM172.287 73V61.224H173.583V66.744H173.375C173.599 66.1147 173.973 65.64 174.495 65.32C175.029 64.9893 175.642 64.824 176.335 64.824C177.295 64.824 178.01 65.0853 178.479 65.608C178.949 66.12 179.183 66.8987 179.183 67.944V73H177.887V68.024C177.887 67.2773 177.738 66.7333 177.439 66.392C177.151 66.0507 176.682 65.88 176.031 65.88C175.285 65.88 174.687 66.1093 174.239 66.568C173.802 67.0267 173.583 67.6293 173.583 68.376V73H172.287ZM184.494 73.144C183.545 73.144 182.825 72.8827 182.334 72.36C181.854 71.8373 181.614 71.0373 181.614 69.96V64.968H182.91V69.928C182.91 70.664 183.06 71.208 183.358 71.56C183.657 71.9013 184.121 72.072 184.75 72.072C185.454 72.072 186.02 71.8427 186.446 71.384C186.873 70.9253 187.086 70.312 187.086 69.544V64.968H188.382V73H187.118V71.192H187.326C187.102 71.8107 186.74 72.2907 186.238 72.632C185.748 72.9733 185.166 73.144 184.494 73.144Z" fill="#5C5C5C"/>
<path d="M213.681 73V61.72H220.721V62.808H215.009V66.76H220.369V67.848H215.009V73H213.681ZM222.334 73V66.904C222.334 66.584 222.323 66.2587 222.302 65.928C222.291 65.5973 222.27 65.2773 222.238 64.968H223.486L223.646 66.92L223.422 66.936C223.528 66.456 223.715 66.0613 223.982 65.752C224.248 65.4427 224.563 65.2133 224.926 65.064C225.288 64.904 225.667 64.824 226.062 64.824C226.222 64.824 226.36 64.8293 226.478 64.84C226.606 64.8507 226.723 64.8773 226.83 64.92L226.814 66.072C226.654 66.0187 226.504 65.9867 226.366 65.976C226.238 65.9547 226.088 65.944 225.918 65.944C225.448 65.944 225.038 66.056 224.686 66.28C224.344 66.504 224.083 66.792 223.902 67.144C223.731 67.496 223.646 67.8693 223.646 68.264V73H222.334ZM228.178 73V64.968H229.474V73H228.178ZM228.018 63.144V61.688H229.618V63.144H228.018Z" fill="#5C5C5C"/>
<path d="M260.01 73.144C259.103 73.144 258.293 73.0267 257.578 72.792C256.863 72.5573 256.239 72.2213 255.706 71.784L256.186 70.728C256.559 71.0053 256.933 71.24 257.306 71.432C257.69 71.6133 258.101 71.752 258.538 71.848C258.975 71.9333 259.466 71.976 260.01 71.976C260.959 71.976 261.663 71.8 262.122 71.448C262.581 71.096 262.81 70.6267 262.81 70.04C262.81 69.5387 262.65 69.1547 262.33 68.888C262.01 68.6213 261.45 68.408 260.65 68.248L258.97 67.912C257.935 67.6987 257.162 67.352 256.65 66.872C256.149 66.392 255.898 65.7413 255.898 64.92C255.898 64.248 256.069 63.6613 256.41 63.16C256.762 62.6587 257.253 62.2693 257.882 61.992C258.511 61.7147 259.242 61.576 260.074 61.576C260.874 61.576 261.605 61.6987 262.266 61.944C262.927 62.1787 263.493 62.5253 263.962 62.984L263.498 64.008C262.997 63.56 262.469 63.24 261.914 63.048C261.37 62.8453 260.751 62.744 260.058 62.744C259.183 62.744 258.49 62.936 257.978 63.32C257.477 63.6933 257.226 64.2053 257.226 64.856C257.226 65.3787 257.386 65.7893 257.706 66.088C258.026 66.376 258.554 66.5947 259.29 66.744L260.986 67.08C262.074 67.304 262.874 67.64 263.386 68.088C263.898 68.536 264.154 69.1653 264.154 69.976C264.154 70.5947 263.983 71.144 263.642 71.624C263.311 72.104 262.837 72.4773 262.218 72.744C261.599 73.0107 260.863 73.144 260.01 73.144ZM269.211 73.144C268.496 73.144 267.872 72.9787 267.339 72.648C266.805 72.3067 266.389 71.8267 266.091 71.208C265.803 70.5893 265.659 69.848 265.659 68.984C265.659 68.1093 265.803 67.3627 266.091 66.744C266.389 66.1253 266.805 65.6507 267.339 65.32C267.872 64.9893 268.496 64.824 269.211 64.824C269.936 64.824 270.56 65.0107 271.083 65.384C271.616 65.7467 271.968 66.2427 272.139 66.872H271.947L272.123 64.968H273.371C273.339 65.2773 273.307 65.592 273.275 65.912C273.253 66.2213 273.243 66.5253 273.243 66.824V73H271.947V71.112H272.123C271.952 71.7413 271.6 72.2373 271.067 72.6C270.533 72.9627 269.915 73.144 269.211 73.144ZM269.467 72.088C270.235 72.088 270.843 71.8267 271.291 71.304C271.739 70.7707 271.963 69.9973 271.963 68.984C271.963 67.96 271.739 67.1867 271.291 66.664C270.843 66.1307 270.235 65.864 269.467 65.864C268.709 65.864 268.101 66.1307 267.643 66.664C267.195 67.1867 266.971 67.96 266.971 68.984C266.971 69.9973 267.195 70.7707 267.643 71.304C268.101 71.8267 268.709 72.088 269.467 72.088ZM278.596 73.144C277.807 73.144 277.204 72.92 276.788 72.472C276.372 72.0133 276.164 71.3253 276.164 70.408V65.976H274.596V64.968H276.164V62.776L277.46 62.408V64.968H279.764V65.976H277.46V70.264C277.46 70.904 277.567 71.3627 277.78 71.64C278.004 71.9067 278.335 72.04 278.772 72.04C278.975 72.04 279.156 72.024 279.316 71.992C279.476 71.9493 279.62 71.9013 279.748 71.848V72.936C279.599 73 279.418 73.048 279.204 73.08C279.002 73.1227 278.799 73.144 278.596 73.144Z" fill="#FF3030"/>
<path d="M304.299 73.144C303.392 73.144 302.582 73.0267 301.867 72.792C301.152 72.5573 300.528 72.2213 299.995 71.784L300.475 70.728C300.848 71.0053 301.222 71.24 301.595 71.432C301.979 71.6133 302.39 71.752 302.827 71.848C303.264 71.9333 303.755 71.976 304.299 71.976C305.248 71.976 305.952 71.8 306.411 71.448C306.87 71.096 307.099 70.6267 307.099 70.04C307.099 69.5387 306.939 69.1547 306.619 68.888C306.299 68.6213 305.739 68.408 304.939 68.248L303.259 67.912C302.224 67.6987 301.451 67.352 300.939 66.872C300.438 66.392 300.187 65.7413 300.187 64.92C300.187 64.248 300.358 63.6613 300.699 63.16C301.051 62.6587 301.542 62.2693 302.171 61.992C302.8 61.7147 303.531 61.576 304.363 61.576C305.163 61.576 305.894 61.6987 306.555 61.944C307.216 62.1787 307.782 62.5253 308.251 62.984L307.787 64.008C307.286 63.56 306.758 63.24 306.203 63.048C305.659 62.8453 305.04 62.744 304.347 62.744C303.472 62.744 302.779 62.936 302.267 63.32C301.766 63.6933 301.515 64.2053 301.515 64.856C301.515 65.3787 301.675 65.7893 301.995 66.088C302.315 66.376 302.843 66.5947 303.579 66.744L305.275 67.08C306.363 67.304 307.163 67.64 307.675 68.088C308.187 68.536 308.443 69.1653 308.443 69.976C308.443 70.5947 308.272 71.144 307.931 71.624C307.6 72.104 307.126 72.4773 306.507 72.744C305.888 73.0107 305.152 73.144 304.299 73.144ZM313.276 73.144C312.326 73.144 311.606 72.8827 311.116 72.36C310.636 71.8373 310.396 71.0373 310.396 69.96V64.968H311.692V69.928C311.692 70.664 311.841 71.208 312.14 71.56C312.438 71.9013 312.902 72.072 313.532 72.072C314.236 72.072 314.801 71.8427 315.228 71.384C315.654 70.9253 315.868 70.312 315.868 69.544V64.968H317.164V73H315.9V71.192H316.108C315.884 71.8107 315.521 72.2907 315.02 72.632C314.529 72.9733 313.948 73.144 313.276 73.144ZM319.678 73V66.824C319.678 66.5253 319.662 66.2213 319.63 65.912C319.609 65.592 319.582 65.2773 319.55 64.968H320.798L320.958 66.728H320.766C321.001 66.1093 321.374 65.64 321.886 65.32C322.409 64.9893 323.011 64.824 323.694 64.824C324.643 64.824 325.358 65.08 325.838 65.592C326.329 66.0933 326.574 66.888 326.574 67.976V73H325.278V68.056C325.278 67.2987 325.123 66.7493 324.814 66.408C324.515 66.056 324.046 65.88 323.406 65.88C322.659 65.88 322.067 66.1093 321.63 66.568C321.193 67.0267 320.974 67.64 320.974 68.408V73H319.678Z" fill="#FF3030"/>
<path d="M33.2495 113.126C32.5868 113.126 31.9521 113.023 31.3455 112.818C30.7388 112.613 30.2301 112.319 29.8195 111.936L30.2535 111.04C30.7108 111.413 31.1821 111.684 31.6675 111.852C32.1528 112.02 32.6755 112.104 33.2355 112.104C33.9728 112.104 34.5328 111.95 34.9155 111.642C35.2981 111.325 35.4895 110.863 35.4895 110.256C35.4895 109.677 35.2935 109.239 34.9015 108.94C34.5095 108.632 33.9355 108.478 33.1795 108.478H31.6955V107.512H33.0815C33.7348 107.512 34.2528 107.344 34.6355 107.008C35.0181 106.672 35.2095 106.215 35.2095 105.636C35.2095 105.113 35.0321 104.717 34.6775 104.446C34.3321 104.166 33.8328 104.026 33.1795 104.026C32.1155 104.026 31.1961 104.404 30.4215 105.16L29.9875 104.25C30.3701 103.858 30.8508 103.555 31.4295 103.34C32.0081 103.116 32.6148 103.004 33.2495 103.004C34.2201 103.004 34.9808 103.228 35.5315 103.676C36.0821 104.124 36.3575 104.745 36.3575 105.538C36.3575 106.145 36.1848 106.667 35.8395 107.106C35.4941 107.535 35.0275 107.829 34.4395 107.988V107.834C35.1395 107.946 35.6808 108.226 36.0635 108.674C36.4461 109.113 36.6375 109.668 36.6375 110.34C36.6375 111.199 36.3341 111.88 35.7275 112.384C35.1301 112.879 34.3041 113.126 33.2495 113.126ZM39.278 113V112.006H41.602V104.124H42.218L39.502 105.818V104.656L41.924 103.13H42.764V112.006H44.948V113H39.278Z" fill="#8A8A8A"/>
<path d="M81.0807 113V112.006H83.4047V104.124H84.0207L81.3047 105.818V104.656L83.7267 103.13H84.5667V112.006H86.7507V113H81.0807Z" fill="#8A8A8A"/>
<circle cx="83.5" cy="119" r="2" fill="#3AC922"/>
<path d="M126.507 113V112.132L130.007 108.478C130.464 108.002 130.805 107.549 131.029 107.12C131.262 106.681 131.379 106.229 131.379 105.762C131.379 105.193 131.201 104.763 130.847 104.474C130.492 104.175 129.979 104.026 129.307 104.026C128.784 104.026 128.299 104.119 127.851 104.306C127.412 104.483 126.987 104.768 126.577 105.16L126.157 104.25C126.53 103.877 127.006 103.578 127.585 103.354C128.163 103.121 128.775 103.004 129.419 103.004C130.417 103.004 131.187 103.237 131.729 103.704C132.27 104.161 132.541 104.815 132.541 105.664C132.541 106.289 132.387 106.887 132.079 107.456C131.78 108.016 131.341 108.595 130.763 109.192L127.669 112.328V112.006H132.961V113H126.507Z" fill="#181818"/>
<circle cx="129.5" cy="119" r="2" fill="#F7D523"/>
<path d="M175.447 113.126C174.784 113.126 174.149 113.023 173.543 112.818C172.936 112.613 172.427 112.319 172.017 111.936L172.451 111.04C172.908 111.413 173.379 111.684 173.865 111.852C174.35 112.02 174.873 112.104 175.433 112.104C176.17 112.104 176.73 111.95 177.113 111.642C177.495 111.325 177.687 110.863 177.687 110.256C177.687 109.677 177.491 109.239 177.099 108.94C176.707 108.632 176.133 108.478 175.377 108.478H173.893V107.512H175.279C175.932 107.512 176.45 107.344 176.833 107.008C177.215 106.672 177.407 106.215 177.407 105.636C177.407 105.113 177.229 104.717 176.875 104.446C176.529 104.166 176.03 104.026 175.377 104.026C174.313 104.026 173.393 104.404 172.619 105.16L172.185 104.25C172.567 103.858 173.048 103.555 173.627 103.34C174.205 103.116 174.812 103.004 175.447 103.004C176.417 103.004 177.178 103.228 177.729 103.676C178.279 104.124 178.555 104.745 178.555 105.538C178.555 106.145 178.382 106.667 178.037 107.106C177.691 107.535 177.225 107.829 176.637 107.988V107.834C177.337 107.946 177.878 108.226 178.261 108.674C178.643 109.113 178.835 109.668 178.835 110.34C178.835 111.199 178.531 111.88 177.925 112.384C177.327 112.879 176.501 113.126 175.447 113.126Z" fill="#181818"/>
<circle cx="175.5" cy="119" r="2" fill="#3AC922"/>
<path d="M222.707 113V110.858H218.003V110.018L222.889 103.13H223.841V109.92H225.353V110.858H223.841V113H222.707ZM222.707 109.92V104.502H223.015L218.955 110.214V109.92H222.707Z" fill="#181818"/>
<circle cx="221.5" cy="119" r="2" fill="#F7D523"/>
<path d="M267.685 113.126C267.255 113.126 266.835 113.079 266.425 112.986C266.014 112.893 265.627 112.757 265.263 112.58C264.908 112.403 264.595 112.188 264.325 111.936L264.759 111.04C265.216 111.404 265.683 111.675 266.159 111.852C266.635 112.02 267.143 112.104 267.685 112.104C268.394 112.104 268.949 111.913 269.351 111.53C269.752 111.147 269.953 110.643 269.953 110.018C269.953 109.374 269.761 108.847 269.379 108.436C268.996 108.025 268.464 107.82 267.783 107.82C267.297 107.82 266.863 107.918 266.481 108.114C266.098 108.301 265.767 108.595 265.487 108.996H264.647V103.13H270.499V104.11H265.767V108.044H265.459C265.711 107.652 266.056 107.353 266.495 107.148C266.943 106.933 267.447 106.826 268.007 106.826C268.641 106.826 269.187 106.957 269.645 107.218C270.111 107.479 270.471 107.843 270.723 108.31C270.975 108.777 271.101 109.323 271.101 109.948C271.101 110.573 270.961 111.129 270.681 111.614C270.41 112.09 270.018 112.463 269.505 112.734C269.001 112.995 268.394 113.126 267.685 113.126Z" fill="#181818"/>
<circle cx="267.5" cy="119" r="2" fill="#3AC922"/>
<path d="M313.825 113.126C312.63 113.126 311.706 112.706 311.053 111.866C310.409 111.017 310.087 109.831 310.087 108.31C310.087 107.171 310.25 106.21 310.577 105.426C310.903 104.633 311.37 104.031 311.977 103.62C312.583 103.209 313.316 103.004 314.175 103.004C314.688 103.004 315.206 103.111 315.729 103.326C316.251 103.531 316.681 103.821 317.017 104.194L316.597 105.09C316.242 104.726 315.855 104.46 315.435 104.292C315.015 104.115 314.59 104.026 314.161 104.026C313.209 104.026 312.476 104.367 311.963 105.048C311.459 105.72 311.207 106.733 311.207 108.086V109.388H311.081C311.146 108.856 311.305 108.399 311.557 108.016C311.818 107.624 312.159 107.325 312.579 107.12C312.999 106.915 313.465 106.812 313.979 106.812C314.576 106.812 315.103 106.943 315.561 107.204C316.018 107.465 316.377 107.834 316.639 108.31C316.9 108.777 317.031 109.313 317.031 109.92C317.031 110.536 316.895 111.087 316.625 111.572C316.354 112.057 315.976 112.44 315.491 112.72C315.005 112.991 314.45 113.126 313.825 113.126ZM313.741 112.146C314.17 112.146 314.548 112.057 314.875 111.88C315.211 111.693 315.467 111.437 315.645 111.11C315.831 110.774 315.925 110.391 315.925 109.962C315.925 109.533 315.831 109.155 315.645 108.828C315.467 108.501 315.211 108.245 314.875 108.058C314.548 107.871 314.17 107.778 313.741 107.778C313.311 107.778 312.933 107.871 312.607 108.058C312.28 108.245 312.023 108.501 311.837 108.828C311.659 109.155 311.571 109.533 311.571 109.962C311.571 110.391 311.659 110.774 311.837 111.11C312.023 111.437 312.28 111.693 312.607 111.88C312.933 112.057 313.311 112.146 313.741 112.146Z" fill="#181818"/>
<circle cx="313.5" cy="119" r="2" fill="#F7D523"/>
<path d="M34.8847 159L39.7427 149.62V150.124H34.2267V149.13H40.7927V149.998L36.1587 159H34.8847Z" fill="#181818"/>
<circle cx="37.5" cy="165" r="2" fill="#FF3030"/>
<path d="M83.5027 159.126C82.3734 159.126 81.5007 158.888 80.8847 158.412C80.2687 157.927 79.9607 157.25 79.9607 156.382C79.9607 155.701 80.1707 155.136 80.5907 154.688C81.0107 154.231 81.5661 153.955 82.2567 153.862V154.072C81.6314 153.941 81.1321 153.657 80.7587 153.218C80.3854 152.77 80.1987 152.243 80.1987 151.636C80.1987 150.805 80.4927 150.161 81.0807 149.704C81.6687 149.237 82.4761 149.004 83.5027 149.004C84.5387 149.004 85.3507 149.237 85.9387 149.704C86.5267 150.161 86.8207 150.805 86.8207 151.636C86.8207 152.243 86.6434 152.77 86.2887 153.218C85.9434 153.666 85.4581 153.946 84.8327 154.058V153.862C85.5141 153.955 86.0554 154.231 86.4567 154.688C86.8581 155.136 87.0587 155.701 87.0587 156.382C87.0587 157.25 86.7507 157.927 86.1347 158.412C85.5187 158.888 84.6414 159.126 83.5027 159.126ZM83.5027 158.174C84.3241 158.174 84.9354 158.02 85.3367 157.712C85.7474 157.404 85.9527 156.937 85.9527 156.312C85.9527 155.696 85.7474 155.239 85.3367 154.94C84.9354 154.632 84.3241 154.478 83.5027 154.478C82.6814 154.478 82.0654 154.632 81.6547 154.94C81.2534 155.239 81.0527 155.696 81.0527 156.312C81.0527 156.937 81.2581 157.404 81.6687 157.712C82.0794 158.02 82.6907 158.174 83.5027 158.174ZM83.5027 153.526C84.2121 153.526 84.7534 153.367 85.1267 153.05C85.5094 152.733 85.7007 152.294 85.7007 151.734C85.7007 151.174 85.5094 150.74 85.1267 150.432C84.7534 150.115 84.2121 149.956 83.5027 149.956C82.7934 149.956 82.2474 150.115 81.8647 150.432C81.4914 150.74 81.3047 151.174 81.3047 151.734C81.3047 152.294 81.4914 152.733 81.8647 153.05C82.2474 153.367 82.7934 153.526 83.5027 153.526Z" fill="#181818"/>
<circle cx="83.5" cy="165" r="2" fill="#3AC922"/>
<path d="M128.845 159.126C128.331 159.126 127.813 159.019 127.291 158.804C126.768 158.58 126.334 158.291 125.989 157.936L126.423 157.026C126.777 157.39 127.165 157.661 127.585 157.838C128.005 158.015 128.429 158.104 128.859 158.104C129.801 158.104 130.525 157.768 131.029 157.096C131.542 156.415 131.799 155.397 131.799 154.044V152.742H131.939C131.883 153.265 131.719 153.722 131.449 154.114C131.187 154.506 130.847 154.805 130.427 155.01C130.016 155.215 129.554 155.318 129.041 155.318C128.443 155.318 127.911 155.187 127.445 154.926C126.987 154.665 126.628 154.296 126.367 153.82C126.105 153.344 125.975 152.807 125.975 152.21C125.975 151.585 126.11 151.034 126.381 150.558C126.661 150.073 127.039 149.695 127.515 149.424C128 149.144 128.555 149.004 129.181 149.004C130.385 149.004 131.309 149.424 131.953 150.264C132.606 151.104 132.933 152.289 132.933 153.82C132.933 154.949 132.769 155.911 132.443 156.704C132.116 157.497 131.649 158.099 131.043 158.51C130.436 158.921 129.703 159.126 128.845 159.126ZM129.279 154.352C129.708 154.352 130.086 154.259 130.413 154.072C130.739 153.885 130.991 153.629 131.169 153.302C131.355 152.975 131.449 152.597 131.449 152.168C131.449 151.729 131.355 151.347 131.169 151.02C130.991 150.693 130.739 150.437 130.413 150.25C130.086 150.063 129.708 149.97 129.279 149.97C128.849 149.97 128.467 150.063 128.131 150.25C127.804 150.437 127.547 150.693 127.361 151.02C127.183 151.347 127.095 151.729 127.095 152.168C127.095 152.597 127.183 152.975 127.361 153.302C127.547 153.629 127.804 153.885 128.131 154.072C128.467 154.259 128.849 154.352 129.279 154.352Z" fill="#181818"/>
<circle cx="129.5" cy="165" r="2" fill="#3AC922"/>
<path d="M168.883 159V158.006H171.207V150.124H171.823L169.107 151.818V150.656L171.529 149.13H172.369V158.006H174.553V159H168.883ZM179.7 159.126C178.58 159.126 177.721 158.692 177.124 157.824C176.527 156.956 176.228 155.701 176.228 154.058C176.228 152.406 176.527 151.151 177.124 150.292C177.721 149.433 178.58 149.004 179.7 149.004C180.829 149.004 181.688 149.433 182.276 150.292C182.873 151.151 183.172 152.401 183.172 154.044C183.172 155.696 182.873 156.956 182.276 157.824C181.679 158.692 180.82 159.126 179.7 159.126ZM179.7 158.118C180.484 158.118 181.067 157.787 181.45 157.124C181.833 156.461 182.024 155.435 182.024 154.044C182.024 152.644 181.833 151.622 181.45 150.978C181.067 150.325 180.484 149.998 179.7 149.998C178.925 149.998 178.342 150.325 177.95 150.978C177.567 151.631 177.376 152.653 177.376 154.044C177.376 155.435 177.567 156.461 177.95 157.124C178.342 157.787 178.925 158.118 179.7 158.118Z" fill="#181818"/>
<circle cx="175.5" cy="165" r="2" fill="#F7D523"/>
<path d="M214.883 159V158.006H217.207V150.124H217.823L215.107 151.818V150.656L217.529 149.13H218.369V158.006H220.553V159H214.883ZM223.278 159V158.006H225.602V150.124H226.218L223.502 151.818V150.656L225.924 149.13H226.764V158.006H228.948V159H223.278Z" fill="#181818"/>
<circle cx="221.5" cy="165" r="2" fill="#3AC922"/>
<path d="M260.883 159V158.006H263.207V150.124H263.823L261.107 151.818V150.656L263.529 149.13H264.369V158.006H266.553V159H260.883ZM268.704 159V158.132L272.204 154.478C272.661 154.002 273.002 153.549 273.226 153.12C273.459 152.681 273.576 152.229 273.576 151.762C273.576 151.193 273.399 150.763 273.044 150.474C272.689 150.175 272.176 150.026 271.504 150.026C270.981 150.026 270.496 150.119 270.048 150.306C269.609 150.483 269.185 150.768 268.774 151.16L268.354 150.25C268.727 149.877 269.203 149.578 269.782 149.354C270.361 149.121 270.972 149.004 271.616 149.004C272.615 149.004 273.385 149.237 273.926 149.704C274.467 150.161 274.738 150.815 274.738 151.664C274.738 152.289 274.584 152.887 274.276 153.456C273.977 154.016 273.539 154.595 272.96 155.192L269.866 158.328V158.006H275.158V159H268.704Z" fill="#181818"/>
<circle cx="267.5" cy="165" r="2" fill="#FF3030"/>
<path d="M306.883 159V158.006H309.207V150.124H309.823L307.107 151.818V150.656L309.529 149.13H310.369V158.006H312.553V159H306.883ZM317.644 159.126C316.981 159.126 316.347 159.023 315.74 158.818C315.133 158.613 314.625 158.319 314.214 157.936L314.648 157.04C315.105 157.413 315.577 157.684 316.062 157.852C316.547 158.02 317.07 158.104 317.63 158.104C318.367 158.104 318.927 157.95 319.31 157.642C319.693 157.325 319.884 156.863 319.884 156.256C319.884 155.677 319.688 155.239 319.296 154.94C318.904 154.632 318.33 154.478 317.574 154.478H316.09V153.512H317.476C318.129 153.512 318.647 153.344 319.03 153.008C319.413 152.672 319.604 152.215 319.604 151.636C319.604 151.113 319.427 150.717 319.072 150.446C318.727 150.166 318.227 150.026 317.574 150.026C316.51 150.026 315.591 150.404 314.816 151.16L314.382 150.25C314.765 149.858 315.245 149.555 315.824 149.34C316.403 149.116 317.009 149.004 317.644 149.004C318.615 149.004 319.375 149.228 319.926 149.676C320.477 150.124 320.752 150.745 320.752 151.538C320.752 152.145 320.579 152.667 320.234 153.106C319.889 153.535 319.422 153.829 318.834 153.988V153.834C319.534 153.946 320.075 154.226 320.458 154.674C320.841 155.113 321.032 155.668 321.032 156.34C321.032 157.199 320.729 157.88 320.122 158.384C319.525 158.879 318.699 159.126 317.644 159.126Z" fill="#181818"/>
<circle cx="313.5" cy="165" r="2" fill="#FF3030"/>
<path d="M30.8835 205V204.006H33.2075V196.124H33.8235L31.1075 197.818V196.656L33.5295 195.13H34.3695V204.006H36.5535V205H30.8835ZM42.904 205V202.858H38.2V202.018L43.086 195.13H44.038V201.92H45.55V202.858H44.038V205H42.904ZM42.904 201.92V196.502H43.212L39.152 202.214V201.92H42.904Z" fill="#181818"/>
<circle cx="37.5" cy="211" r="2" fill="#3AC922"/>
<path d="M76.8835 205V204.006H79.2075V196.124H79.8235L77.1075 197.818V196.656L79.5295 195.13H80.3695V204.006H82.5535V205H76.8835ZM87.882 205.126C87.4527 205.126 87.0327 205.079 86.622 204.986C86.2113 204.893 85.824 204.757 85.46 204.58C85.1053 204.403 84.7927 204.188 84.522 203.936L84.956 203.04C85.4133 203.404 85.88 203.675 86.356 203.852C86.832 204.02 87.3407 204.104 87.882 204.104C88.5913 204.104 89.1467 203.913 89.548 203.53C89.9493 203.147 90.15 202.643 90.15 202.018C90.15 201.374 89.9587 200.847 89.576 200.436C89.1933 200.025 88.6613 199.82 87.98 199.82C87.4947 199.82 87.0607 199.918 86.678 200.114C86.2953 200.301 85.964 200.595 85.684 200.996H84.844V195.13H90.696V196.11H85.964V200.044H85.656C85.908 199.652 86.2533 199.353 86.692 199.148C87.14 198.933 87.644 198.826 88.204 198.826C88.8387 198.826 89.3847 198.957 89.842 199.218C90.3087 199.479 90.668 199.843 90.92 200.31C91.172 200.777 91.298 201.323 91.298 201.948C91.298 202.573 91.158 203.129 90.878 203.614C90.6073 204.09 90.2153 204.463 89.702 204.734C89.198 204.995 88.5913 205.126 87.882 205.126Z" fill="#181818"/>
<circle cx="83.5" cy="211" r="2" fill="#3AC922"/>
<path d="M122.883 205V204.006H125.207V196.124H125.823L123.107 197.818V196.656L125.529 195.13H126.369V204.006H128.553V205H122.883ZM134.022 205.126C132.827 205.126 131.903 204.706 131.25 203.866C130.606 203.017 130.284 201.831 130.284 200.31C130.284 199.171 130.447 198.21 130.774 197.426C131.101 196.633 131.567 196.031 132.174 195.62C132.781 195.209 133.513 195.004 134.372 195.004C134.885 195.004 135.403 195.111 135.926 195.326C136.449 195.531 136.878 195.821 137.214 196.194L136.794 197.09C136.439 196.726 136.052 196.46 135.632 196.292C135.212 196.115 134.787 196.026 134.358 196.026C133.406 196.026 132.673 196.367 132.16 197.048C131.656 197.72 131.404 198.733 131.404 200.086V201.388H131.278C131.343 200.856 131.502 200.399 131.754 200.016C132.015 199.624 132.356 199.325 132.776 199.12C133.196 198.915 133.663 198.812 134.176 198.812C134.773 198.812 135.301 198.943 135.758 199.204C136.215 199.465 136.575 199.834 136.836 200.31C137.097 200.777 137.228 201.313 137.228 201.92C137.228 202.536 137.093 203.087 136.822 203.572C136.551 204.057 136.173 204.44 135.688 204.72C135.203 204.991 134.647 205.126 134.022 205.126ZM133.938 204.146C134.367 204.146 134.745 204.057 135.072 203.88C135.408 203.693 135.665 203.437 135.842 203.11C136.029 202.774 136.122 202.391 136.122 201.962C136.122 201.533 136.029 201.155 135.842 200.828C135.665 200.501 135.408 200.245 135.072 200.058C134.745 199.871 134.367 199.778 133.938 199.778C133.509 199.778 133.131 199.871 132.804 200.058C132.477 200.245 132.221 200.501 132.034 200.828C131.857 201.155 131.768 201.533 131.768 201.962C131.768 202.391 131.857 202.774 132.034 203.11C132.221 203.437 132.477 203.693 132.804 203.88C133.131 204.057 133.509 204.146 133.938 204.146Z" fill="#181818"/>
<circle cx="129.5" cy="211" r="2" fill="#3AC922"/>
<path d="M168.883 205V204.006H171.207V196.124H171.823L169.107 197.818V196.656L171.529 195.13H172.369V204.006H174.553V205H168.883ZM177.082 205L181.94 195.62V196.124H176.424V195.13H182.99V195.998L178.356 205H177.082Z" fill="#181818"/>
<circle cx="175.5" cy="211" r="2" fill="#3AC922"/>
<path d="M214.883 205V204.006H217.207V196.124H217.823L215.107 197.818V196.656L217.529 195.13H218.369V204.006H220.553V205H214.883ZM225.7 205.126C224.571 205.126 223.698 204.888 223.082 204.412C222.466 203.927 222.158 203.25 222.158 202.382C222.158 201.701 222.368 201.136 222.788 200.688C223.208 200.231 223.763 199.955 224.454 199.862V200.072C223.829 199.941 223.329 199.657 222.956 199.218C222.583 198.77 222.396 198.243 222.396 197.636C222.396 196.805 222.69 196.161 223.278 195.704C223.866 195.237 224.673 195.004 225.7 195.004C226.736 195.004 227.548 195.237 228.136 195.704C228.724 196.161 229.018 196.805 229.018 197.636C229.018 198.243 228.841 198.77 228.486 199.218C228.141 199.666 227.655 199.946 227.03 200.058V199.862C227.711 199.955 228.253 200.231 228.654 200.688C229.055 201.136 229.256 201.701 229.256 202.382C229.256 203.25 228.948 203.927 228.332 204.412C227.716 204.888 226.839 205.126 225.7 205.126ZM225.7 204.174C226.521 204.174 227.133 204.02 227.534 203.712C227.945 203.404 228.15 202.937 228.15 202.312C228.15 201.696 227.945 201.239 227.534 200.94C227.133 200.632 226.521 200.478 225.7 200.478C224.879 200.478 224.263 200.632 223.852 200.94C223.451 201.239 223.25 201.696 223.25 202.312C223.25 202.937 223.455 203.404 223.866 203.712C224.277 204.02 224.888 204.174 225.7 204.174ZM225.7 199.526C226.409 199.526 226.951 199.367 227.324 199.05C227.707 198.733 227.898 198.294 227.898 197.734C227.898 197.174 227.707 196.74 227.324 196.432C226.951 196.115 226.409 195.956 225.7 195.956C224.991 195.956 224.445 196.115 224.062 196.432C223.689 196.74 223.502 197.174 223.502 197.734C223.502 198.294 223.689 198.733 224.062 199.05C224.445 199.367 224.991 199.526 225.7 199.526Z" fill="#181818"/>
<circle cx="221.5" cy="211" r="2" fill="#F7D523"/>
<path d="M260.883 205V204.006H263.207V196.124H263.823L261.107 197.818V196.656L263.529 195.13H264.369V204.006H266.553V205H260.883ZM271.042 205.126C270.529 205.126 270.011 205.019 269.488 204.804C268.965 204.58 268.531 204.291 268.186 203.936L268.62 203.026C268.975 203.39 269.362 203.661 269.782 203.838C270.202 204.015 270.627 204.104 271.056 204.104C271.999 204.104 272.722 203.768 273.226 203.096C273.739 202.415 273.996 201.397 273.996 200.044V198.742H274.136C274.08 199.265 273.917 199.722 273.646 200.114C273.385 200.506 273.044 200.805 272.624 201.01C272.213 201.215 271.751 201.318 271.238 201.318C270.641 201.318 270.109 201.187 269.642 200.926C269.185 200.665 268.825 200.296 268.564 199.82C268.303 199.344 268.172 198.807 268.172 198.21C268.172 197.585 268.307 197.034 268.578 196.558C268.858 196.073 269.236 195.695 269.712 195.424C270.197 195.144 270.753 195.004 271.378 195.004C272.582 195.004 273.506 195.424 274.15 196.264C274.803 197.104 275.13 198.289 275.13 199.82C275.13 200.949 274.967 201.911 274.64 202.704C274.313 203.497 273.847 204.099 273.24 204.51C272.633 204.921 271.901 205.126 271.042 205.126ZM271.476 200.352C271.905 200.352 272.283 200.259 272.61 200.072C272.937 199.885 273.189 199.629 273.366 199.302C273.553 198.975 273.646 198.597 273.646 198.168C273.646 197.729 273.553 197.347 273.366 197.02C273.189 196.693 272.937 196.437 272.61 196.25C272.283 196.063 271.905 195.97 271.476 195.97C271.047 195.97 270.664 196.063 270.328 196.25C270.001 196.437 269.745 196.693 269.558 197.02C269.381 197.347 269.292 197.729 269.292 198.168C269.292 198.597 269.381 198.975 269.558 199.302C269.745 199.629 270.001 199.885 270.328 200.072C270.664 200.259 271.047 200.352 271.476 200.352Z" fill="#181818"/>
<circle cx="267.5" cy="211" r="2" fill="#3AC922"/>
<path d="M306.309 205V204.132L309.809 200.478C310.267 200.002 310.607 199.549 310.831 199.12C311.065 198.681 311.181 198.229 311.181 197.762C311.181 197.193 311.004 196.763 310.649 196.474C310.295 196.175 309.781 196.026 309.109 196.026C308.587 196.026 308.101 196.119 307.653 196.306C307.215 196.483 306.79 196.768 306.379 197.16L305.959 196.25C306.333 195.877 306.809 195.578 307.387 195.354C307.966 195.121 308.577 195.004 309.221 195.004C310.22 195.004 310.99 195.237 311.531 195.704C312.073 196.161 312.343 196.815 312.343 197.664C312.343 198.289 312.189 198.887 311.881 199.456C311.583 200.016 311.144 200.595 310.565 201.192L307.471 204.328V204.006H312.763V205H306.309ZM317.7 205.126C316.58 205.126 315.721 204.692 315.124 203.824C314.527 202.956 314.228 201.701 314.228 200.058C314.228 198.406 314.527 197.151 315.124 196.292C315.721 195.433 316.58 195.004 317.7 195.004C318.829 195.004 319.688 195.433 320.276 196.292C320.873 197.151 321.172 198.401 321.172 200.044C321.172 201.696 320.873 202.956 320.276 203.824C319.679 204.692 318.82 205.126 317.7 205.126ZM317.7 204.118C318.484 204.118 319.067 203.787 319.45 203.124C319.833 202.461 320.024 201.435 320.024 200.044C320.024 198.644 319.833 197.622 319.45 196.978C319.067 196.325 318.484 195.998 317.7 195.998C316.925 195.998 316.342 196.325 315.95 196.978C315.567 197.631 315.376 198.653 315.376 200.044C315.376 201.435 315.567 202.461 315.95 203.124C316.342 203.787 316.925 204.118 317.7 204.118Z" fill="#181818"/>
<circle cx="313.5" cy="211" r="2" fill="#3AC922"/>
<path d="M30.3095 251V250.132L33.8095 246.478C34.2668 246.002 34.6075 245.549 34.8315 245.12C35.0648 244.681 35.1815 244.229 35.1815 243.762C35.1815 243.193 35.0041 242.763 34.6495 242.474C34.2948 242.175 33.7815 242.026 33.1095 242.026C32.5868 242.026 32.1015 242.119 31.6535 242.306C31.2148 242.483 30.7901 242.768 30.3795 243.16L29.9595 242.25C30.3328 241.877 30.8088 241.578 31.3875 241.354C31.9661 241.121 32.5775 241.004 33.2215 241.004C34.2201 241.004 34.9901 241.237 35.5315 241.704C36.0728 242.161 36.3435 242.815 36.3435 243.664C36.3435 244.289 36.1895 244.887 35.8815 245.456C35.5828 246.016 35.1441 246.595 34.5655 247.192L31.4715 250.328V250.006H36.7635V251H30.3095ZM39.278 251V250.006H41.602V242.124H42.218L39.502 243.818V242.656L41.924 241.13H42.764V250.006H44.948V251H39.278Z" fill="#181818"/>
<circle cx="37.5" cy="257" r="2" fill="#3AC922"/>
<path d="M76.3095 251V250.132L79.8095 246.478C80.2668 246.002 80.6075 245.549 80.8315 245.12C81.0648 244.681 81.1815 244.229 81.1815 243.762C81.1815 243.193 81.0041 242.763 80.6495 242.474C80.2948 242.175 79.7815 242.026 79.1095 242.026C78.5868 242.026 78.1015 242.119 77.6535 242.306C77.2148 242.483 76.7901 242.768 76.3795 243.16L75.9595 242.25C76.3328 241.877 76.8088 241.578 77.3875 241.354C77.9661 241.121 78.5775 241.004 79.2215 241.004C80.2201 241.004 80.9901 241.237 81.5315 241.704C82.0728 242.161 82.3435 242.815 82.3435 243.664C82.3435 244.289 82.1895 244.887 81.8815 245.456C81.5828 246.016 81.1441 246.595 80.5655 247.192L77.4715 250.328V250.006H82.7635V251H76.3095ZM84.704 251V250.132L88.204 246.478C88.6613 246.002 89.002 245.549 89.226 245.12C89.4593 244.681 89.576 244.229 89.576 243.762C89.576 243.193 89.3987 242.763 89.044 242.474C88.6893 242.175 88.176 242.026 87.504 242.026C86.9813 242.026 86.496 242.119 86.048 242.306C85.6093 242.483 85.1847 242.768 84.774 243.16L84.354 242.25C84.7273 241.877 85.2033 241.578 85.782 241.354C86.3607 241.121 86.972 241.004 87.616 241.004C88.6147 241.004 89.3847 241.237 89.926 241.704C90.4673 242.161 90.738 242.815 90.738 243.664C90.738 244.289 90.584 244.887 90.276 245.456C89.9773 246.016 89.5387 246.595 88.96 247.192L85.866 250.328V250.006H91.158V251H84.704Z" fill="#181818"/>
<circle cx="83.5" cy="257" r="2" fill="#3AC922"/>
<path d="M122.309 251V250.132L125.809 246.478C126.267 246.002 126.607 245.549 126.831 245.12C127.065 244.681 127.181 244.229 127.181 243.762C127.181 243.193 127.004 242.763 126.649 242.474C126.295 242.175 125.781 242.026 125.109 242.026C124.587 242.026 124.101 242.119 123.653 242.306C123.215 242.483 122.79 242.768 122.379 243.16L121.959 242.25C122.333 241.877 122.809 241.578 123.387 241.354C123.966 241.121 124.577 241.004 125.221 241.004C126.22 241.004 126.99 241.237 127.531 241.704C128.073 242.161 128.343 242.815 128.343 243.664C128.343 244.289 128.189 244.887 127.881 245.456C127.583 246.016 127.144 246.595 126.565 247.192L123.471 250.328V250.006H128.763V251H122.309ZM133.644 251.126C132.981 251.126 132.347 251.023 131.74 250.818C131.133 250.613 130.625 250.319 130.214 249.936L130.648 249.04C131.105 249.413 131.577 249.684 132.062 249.852C132.547 250.02 133.07 250.104 133.63 250.104C134.367 250.104 134.927 249.95 135.31 249.642C135.693 249.325 135.884 248.863 135.884 248.256C135.884 247.677 135.688 247.239 135.296 246.94C134.904 246.632 134.33 246.478 133.574 246.478H132.09V245.512H133.476C134.129 245.512 134.647 245.344 135.03 245.008C135.413 244.672 135.604 244.215 135.604 243.636C135.604 243.113 135.427 242.717 135.072 242.446C134.727 242.166 134.227 242.026 133.574 242.026C132.51 242.026 131.591 242.404 130.816 243.16L130.382 242.25C130.765 241.858 131.245 241.555 131.824 241.34C132.403 241.116 133.009 241.004 133.644 241.004C134.615 241.004 135.375 241.228 135.926 241.676C136.477 242.124 136.752 242.745 136.752 243.538C136.752 244.145 136.579 244.667 136.234 245.106C135.889 245.535 135.422 245.829 134.834 245.988V245.834C135.534 245.946 136.075 246.226 136.458 246.674C136.841 247.113 137.032 247.668 137.032 248.34C137.032 249.199 136.729 249.88 136.122 250.384C135.525 250.879 134.699 251.126 133.644 251.126Z" fill="#181818"/>
<circle cx="129.5" cy="257" r="2" fill="#3AC922"/>
<rect x="160.5" y="233" width="30" height="30" rx="15" fill="black"/>
<path d="M168.309 251V250.132L171.809 246.478C172.267 246.002 172.607 245.549 172.831 245.12C173.065 244.681 173.181 244.229 173.181 243.762C173.181 243.193 173.004 242.763 172.649 242.474C172.295 242.175 171.781 242.026 171.109 242.026C170.587 242.026 170.101 242.119 169.653 242.306C169.215 242.483 168.79 242.768 168.379 243.16L167.959 242.25C168.333 241.877 168.809 241.578 169.387 241.354C169.966 241.121 170.577 241.004 171.221 241.004C172.22 241.004 172.99 241.237 173.531 241.704C174.073 242.161 174.343 242.815 174.343 243.664C174.343 244.289 174.189 244.887 173.881 245.456C173.583 246.016 173.144 246.595 172.565 247.192L169.471 250.328V250.006H174.763V251H168.309ZM180.904 251V248.858H176.2V248.018L181.086 241.13H182.038V247.92H183.55V248.858H182.038V251H180.904ZM180.904 247.92V242.502H181.212L177.152 248.214V247.92H180.904Z" fill="white"/>
<circle cx="175.5" cy="257" r="2" fill="#FF3030"/>
<path d="M214.309 251V250.132L217.809 246.478C218.267 246.002 218.607 245.549 218.831 245.12C219.065 244.681 219.181 244.229 219.181 243.762C219.181 243.193 219.004 242.763 218.649 242.474C218.295 242.175 217.781 242.026 217.109 242.026C216.587 242.026 216.101 242.119 215.653 242.306C215.215 242.483 214.79 242.768 214.379 243.16L213.959 242.25C214.333 241.877 214.809 241.578 215.387 241.354C215.966 241.121 216.577 241.004 217.221 241.004C218.22 241.004 218.99 241.237 219.531 241.704C220.073 242.161 220.343 242.815 220.343 243.664C220.343 244.289 220.189 244.887 219.881 245.456C219.583 246.016 219.144 246.595 218.565 247.192L215.471 250.328V250.006H220.763V251H214.309ZM225.882 251.126C225.453 251.126 225.033 251.079 224.622 250.986C224.211 250.893 223.824 250.757 223.46 250.58C223.105 250.403 222.793 250.188 222.522 249.936L222.956 249.04C223.413 249.404 223.88 249.675 224.356 249.852C224.832 250.02 225.341 250.104 225.882 250.104C226.591 250.104 227.147 249.913 227.548 249.53C227.949 249.147 228.15 248.643 228.15 248.018C228.15 247.374 227.959 246.847 227.576 246.436C227.193 246.025 226.661 245.82 225.98 245.82C225.495 245.82 225.061 245.918 224.678 246.114C224.295 246.301 223.964 246.595 223.684 246.996H222.844V241.13H228.696V242.11H223.964V246.044H223.656C223.908 245.652 224.253 245.353 224.692 245.148C225.14 244.933 225.644 244.826 226.204 244.826C226.839 244.826 227.385 244.957 227.842 245.218C228.309 245.479 228.668 245.843 228.92 246.31C229.172 246.777 229.298 247.323 229.298 247.948C229.298 248.573 229.158 249.129 228.878 249.614C228.607 250.09 228.215 250.463 227.702 250.734C227.198 250.995 226.591 251.126 225.882 251.126Z" fill="#181818"/>
<circle cx="221.5" cy="257" r="2" fill="#FF3030"/>
<path d="M260.309 251V250.132L263.809 246.478C264.267 246.002 264.607 245.549 264.831 245.12C265.065 244.681 265.181 244.229 265.181 243.762C265.181 243.193 265.004 242.763 264.649 242.474C264.295 242.175 263.781 242.026 263.109 242.026C262.587 242.026 262.101 242.119 261.653 242.306C261.215 242.483 260.79 242.768 260.379 243.16L259.959 242.25C260.333 241.877 260.809 241.578 261.387 241.354C261.966 241.121 262.577 241.004 263.221 241.004C264.22 241.004 264.99 241.237 265.531 241.704C266.073 242.161 266.343 242.815 266.343 243.664C266.343 244.289 266.189 244.887 265.881 245.456C265.583 246.016 265.144 246.595 264.565 247.192L261.471 250.328V250.006H266.763V251H260.309ZM272.022 251.126C270.827 251.126 269.903 250.706 269.25 249.866C268.606 249.017 268.284 247.831 268.284 246.31C268.284 245.171 268.447 244.21 268.774 243.426C269.101 242.633 269.567 242.031 270.174 241.62C270.781 241.209 271.513 241.004 272.372 241.004C272.885 241.004 273.403 241.111 273.926 241.326C274.449 241.531 274.878 241.821 275.214 242.194L274.794 243.09C274.439 242.726 274.052 242.46 273.632 242.292C273.212 242.115 272.787 242.026 272.358 242.026C271.406 242.026 270.673 242.367 270.16 243.048C269.656 243.72 269.404 244.733 269.404 246.086V247.388H269.278C269.343 246.856 269.502 246.399 269.754 246.016C270.015 245.624 270.356 245.325 270.776 245.12C271.196 244.915 271.663 244.812 272.176 244.812C272.773 244.812 273.301 244.943 273.758 245.204C274.215 245.465 274.575 245.834 274.836 246.31C275.097 246.777 275.228 247.313 275.228 247.92C275.228 248.536 275.093 249.087 274.822 249.572C274.551 250.057 274.173 250.44 273.688 250.72C273.203 250.991 272.647 251.126 272.022 251.126ZM271.938 250.146C272.367 250.146 272.745 250.057 273.072 249.88C273.408 249.693 273.665 249.437 273.842 249.11C274.029 248.774 274.122 248.391 274.122 247.962C274.122 247.533 274.029 247.155 273.842 246.828C273.665 246.501 273.408 246.245 273.072 246.058C272.745 245.871 272.367 245.778 271.938 245.778C271.509 245.778 271.131 245.871 270.804 246.058C270.477 246.245 270.221 246.501 270.034 246.828C269.857 247.155 269.768 247.533 269.768 247.962C269.768 248.391 269.857 248.774 270.034 249.11C270.221 249.437 270.477 249.693 270.804 249.88C271.131 250.057 271.509 250.146 271.938 250.146Z" fill="#181818"/>
<circle cx="267.5" cy="257" r="2" fill="#F7D523"/>
<path d="M306.309 251V250.132L309.809 246.478C310.267 246.002 310.607 245.549 310.831 245.12C311.065 244.681 311.181 244.229 311.181 243.762C311.181 243.193 311.004 242.763 310.649 242.474C310.295 242.175 309.781 242.026 309.109 242.026C308.587 242.026 308.101 242.119 307.653 242.306C307.215 242.483 306.79 242.768 306.379 243.16L305.959 242.25C306.333 241.877 306.809 241.578 307.387 241.354C307.966 241.121 308.577 241.004 309.221 241.004C310.22 241.004 310.99 241.237 311.531 241.704C312.073 242.161 312.343 242.815 312.343 243.664C312.343 244.289 312.189 244.887 311.881 245.456C311.583 246.016 311.144 246.595 310.565 247.192L307.471 250.328V250.006H312.763V251H306.309ZM315.082 251L319.94 241.62V242.124H314.424V241.13H320.99V241.998L316.356 251H315.082Z" fill="#181818"/>
<circle cx="313.5" cy="257" r="2" fill="#3AC922"/>
<path d="M30.3095 297V296.132L33.8095 292.478C34.2668 292.002 34.6075 291.549 34.8315 291.12C35.0648 290.681 35.1815 290.229 35.1815 289.762C35.1815 289.193 35.0041 288.763 34.6495 288.474C34.2948 288.175 33.7815 288.026 33.1095 288.026C32.5868 288.026 32.1015 288.119 31.6535 288.306C31.2148 288.483 30.7901 288.768 30.3795 289.16L29.9595 288.25C30.3328 287.877 30.8088 287.578 31.3875 287.354C31.9661 287.121 32.5775 287.004 33.2215 287.004C34.2201 287.004 34.9901 287.237 35.5315 287.704C36.0728 288.161 36.3435 288.815 36.3435 289.664C36.3435 290.289 36.1895 290.887 35.8815 291.456C35.5828 292.016 35.1441 292.595 34.5655 293.192L31.4715 296.328V296.006H36.7635V297H30.3095ZM41.7 297.126C40.5707 297.126 39.698 296.888 39.082 296.412C38.466 295.927 38.158 295.25 38.158 294.382C38.158 293.701 38.368 293.136 38.788 292.688C39.208 292.231 39.7633 291.955 40.454 291.862V292.072C39.8287 291.941 39.3293 291.657 38.956 291.218C38.5827 290.77 38.396 290.243 38.396 289.636C38.396 288.805 38.69 288.161 39.278 287.704C39.866 287.237 40.6733 287.004 41.7 287.004C42.736 287.004 43.548 287.237 44.136 287.704C44.724 288.161 45.018 288.805 45.018 289.636C45.018 290.243 44.8407 290.77 44.486 291.218C44.1407 291.666 43.6553 291.946 43.03 292.058V291.862C43.7113 291.955 44.2527 292.231 44.654 292.688C45.0553 293.136 45.256 293.701 45.256 294.382C45.256 295.25 44.948 295.927 44.332 296.412C43.716 296.888 42.8387 297.126 41.7 297.126ZM41.7 296.174C42.5213 296.174 43.1327 296.02 43.534 295.712C43.9447 295.404 44.15 294.937 44.15 294.312C44.15 293.696 43.9447 293.239 43.534 292.94C43.1327 292.632 42.5213 292.478 41.7 292.478C40.8787 292.478 40.2627 292.632 39.852 292.94C39.4507 293.239 39.25 293.696 39.25 294.312C39.25 294.937 39.4553 295.404 39.866 295.712C40.2767 296.02 40.888 296.174 41.7 296.174ZM41.7 291.526C42.4093 291.526 42.9507 291.367 43.324 291.05C43.7067 290.733 43.898 290.294 43.898 289.734C43.898 289.174 43.7067 288.74 43.324 288.432C42.9507 288.115 42.4093 287.956 41.7 287.956C40.9907 287.956 40.4447 288.115 40.062 288.432C39.6887 288.74 39.502 289.174 39.502 289.734C39.502 290.294 39.6887 290.733 40.062 291.05C40.4447 291.367 40.9907 291.526 41.7 291.526Z" fill="#181818"/>
<circle cx="37.5" cy="303" r="2" fill="#3AC922"/>
<path d="M76.3095 297V296.132L79.8095 292.478C80.2668 292.002 80.6075 291.549 80.8315 291.12C81.0648 290.681 81.1815 290.229 81.1815 289.762C81.1815 289.193 81.0041 288.763 80.6495 288.474C80.2948 288.175 79.7815 288.026 79.1095 288.026C78.5868 288.026 78.1015 288.119 77.6535 288.306C77.2148 288.483 76.7901 288.768 76.3795 289.16L75.9595 288.25C76.3328 287.877 76.8088 287.578 77.3875 287.354C77.9661 287.121 78.5775 287.004 79.2215 287.004C80.2201 287.004 80.9901 287.237 81.5315 287.704C82.0728 288.161 82.3435 288.815 82.3435 289.664C82.3435 290.289 82.1895 290.887 81.8815 291.456C81.5828 292.016 81.1441 292.595 80.5655 293.192L77.4715 296.328V296.006H82.7635V297H76.3095ZM87.042 297.126C86.5287 297.126 86.0107 297.019 85.488 296.804C84.9653 296.58 84.5313 296.291 84.186 295.936L84.62 295.026C84.9747 295.39 85.362 295.661 85.782 295.838C86.202 296.015 86.6267 296.104 87.056 296.104C87.9987 296.104 88.722 295.768 89.226 295.096C89.7393 294.415 89.996 293.397 89.996 292.044V290.742H90.136C90.08 291.265 89.9167 291.722 89.646 292.114C89.3847 292.506 89.044 292.805 88.624 293.01C88.2133 293.215 87.7513 293.318 87.238 293.318C86.6407 293.318 86.1087 293.187 85.642 292.926C85.1847 292.665 84.8253 292.296 84.564 291.82C84.3027 291.344 84.172 290.807 84.172 290.21C84.172 289.585 84.3073 289.034 84.578 288.558C84.858 288.073 85.236 287.695 85.712 287.424C86.1973 287.144 86.7527 287.004 87.378 287.004C88.582 287.004 89.506 287.424 90.15 288.264C90.8033 289.104 91.13 290.289 91.13 291.82C91.13 292.949 90.9667 293.911 90.64 294.704C90.3133 295.497 89.8467 296.099 89.24 296.51C88.6333 296.921 87.9007 297.126 87.042 297.126ZM87.476 292.352C87.9053 292.352 88.2833 292.259 88.61 292.072C88.9367 291.885 89.1887 291.629 89.366 291.302C89.5527 290.975 89.646 290.597 89.646 290.168C89.646 289.729 89.5527 289.347 89.366 289.02C89.1887 288.693 88.9367 288.437 88.61 288.25C88.2833 288.063 87.9053 287.97 87.476 287.97C87.0467 287.97 86.664 288.063 86.328 288.25C86.0013 288.437 85.7447 288.693 85.558 289.02C85.3807 289.347 85.292 289.729 85.292 290.168C85.292 290.597 85.3807 290.975 85.558 291.302C85.7447 291.629 86.0013 291.885 86.328 292.072C86.664 292.259 87.0467 292.352 87.476 292.352Z" fill="#181818"/>
<circle cx="83.5" cy="303" r="2" fill="#3AC922"/>
<path d="M125.249 297.126C124.587 297.126 123.952 297.023 123.345 296.818C122.739 296.613 122.23 296.319 121.819 295.936L122.253 295.04C122.711 295.413 123.182 295.684 123.667 295.852C124.153 296.02 124.675 296.104 125.235 296.104C125.973 296.104 126.533 295.95 126.915 295.642C127.298 295.325 127.489 294.863 127.489 294.256C127.489 293.677 127.293 293.239 126.901 292.94C126.509 292.632 125.935 292.478 125.179 292.478H123.695V291.512H125.081C125.735 291.512 126.253 291.344 126.635 291.008C127.018 290.672 127.209 290.215 127.209 289.636C127.209 289.113 127.032 288.717 126.677 288.446C126.332 288.166 125.833 288.026 125.179 288.026C124.115 288.026 123.196 288.404 122.421 289.16L121.987 288.25C122.37 287.858 122.851 287.555 123.429 287.34C124.008 287.116 124.615 287.004 125.249 287.004C126.22 287.004 126.981 287.228 127.531 287.676C128.082 288.124 128.357 288.745 128.357 289.538C128.357 290.145 128.185 290.667 127.839 291.106C127.494 291.535 127.027 291.829 126.439 291.988V291.834C127.139 291.946 127.681 292.226 128.063 292.674C128.446 293.113 128.637 293.668 128.637 294.34C128.637 295.199 128.334 295.88 127.727 296.384C127.13 296.879 126.304 297.126 125.249 297.126ZM133.7 297.126C132.58 297.126 131.721 296.692 131.124 295.824C130.527 294.956 130.228 293.701 130.228 292.058C130.228 290.406 130.527 289.151 131.124 288.292C131.721 287.433 132.58 287.004 133.7 287.004C134.829 287.004 135.688 287.433 136.276 288.292C136.873 289.151 137.172 290.401 137.172 292.044C137.172 293.696 136.873 294.956 136.276 295.824C135.679 296.692 134.82 297.126 133.7 297.126ZM133.7 296.118C134.484 296.118 135.067 295.787 135.45 295.124C135.833 294.461 136.024 293.435 136.024 292.044C136.024 290.644 135.833 289.622 135.45 288.978C135.067 288.325 134.484 287.998 133.7 287.998C132.925 287.998 132.342 288.325 131.95 288.978C131.567 289.631 131.376 290.653 131.376 292.044C131.376 293.435 131.567 294.461 131.95 295.124C132.342 295.787 132.925 296.118 133.7 296.118Z" fill="#181818"/>
<circle cx="129.5" cy="303" r="2" fill="#3AC922"/>
<path d="M171.249 297.126C170.587 297.126 169.952 297.023 169.345 296.818C168.739 296.613 168.23 296.319 167.819 295.936L168.253 295.04C168.711 295.413 169.182 295.684 169.667 295.852C170.153 296.02 170.675 296.104 171.235 296.104C171.973 296.104 172.533 295.95 172.915 295.642C173.298 295.325 173.489 294.863 173.489 294.256C173.489 293.677 173.293 293.239 172.901 292.94C172.509 292.632 171.935 292.478 171.179 292.478H169.695V291.512H171.081C171.735 291.512 172.253 291.344 172.635 291.008C173.018 290.672 173.209 290.215 173.209 289.636C173.209 289.113 173.032 288.717 172.677 288.446C172.332 288.166 171.833 288.026 171.179 288.026C170.115 288.026 169.196 288.404 168.421 289.16L167.987 288.25C168.37 287.858 168.851 287.555 169.429 287.34C170.008 287.116 170.615 287.004 171.249 287.004C172.22 287.004 172.981 287.228 173.531 287.676C174.082 288.124 174.357 288.745 174.357 289.538C174.357 290.145 174.185 290.667 173.839 291.106C173.494 291.535 173.027 291.829 172.439 291.988V291.834C173.139 291.946 173.681 292.226 174.063 292.674C174.446 293.113 174.637 293.668 174.637 294.34C174.637 295.199 174.334 295.88 173.727 296.384C173.13 296.879 172.304 297.126 171.249 297.126ZM177.278 297V296.006H179.602V288.124H180.218L177.502 289.818V288.656L179.924 287.13H180.764V296.006H182.948V297H177.278Z" fill="#181818"/>
<circle cx="175.5" cy="303" r="2" fill="#3AC922"/>
<path d="M219.081 299V298.006H221.405V290.124H222.021L219.305 291.818V290.656L221.727 289.13H222.567V298.006H224.751V299H219.081Z" fill="#8A8A8A"/>
<path d="M264.507 299V298.132L268.007 294.478C268.464 294.002 268.805 293.549 269.029 293.12C269.262 292.681 269.379 292.229 269.379 291.762C269.379 291.193 269.201 290.763 268.847 290.474C268.492 290.175 267.979 290.026 267.307 290.026C266.784 290.026 266.299 290.119 265.851 290.306C265.412 290.483 264.987 290.768 264.577 291.16L264.157 290.25C264.53 289.877 265.006 289.578 265.585 289.354C266.163 289.121 266.775 289.004 267.419 289.004C268.417 289.004 269.187 289.237 269.729 289.704C270.27 290.161 270.541 290.815 270.541 291.664C270.541 292.289 270.387 292.887 270.079 293.456C269.78 294.016 269.341 294.595 268.763 295.192L265.669 298.328V298.006H270.961V299H264.507Z" fill="#8A8A8A"/>
<path d="M313.447 299.126C312.784 299.126 312.149 299.023 311.543 298.818C310.936 298.613 310.427 298.319 310.017 297.936L310.451 297.04C310.908 297.413 311.379 297.684 311.865 297.852C312.35 298.02 312.873 298.104 313.433 298.104C314.17 298.104 314.73 297.95 315.113 297.642C315.495 297.325 315.687 296.863 315.687 296.256C315.687 295.677 315.491 295.239 315.099 294.94C314.707 294.632 314.133 294.478 313.377 294.478H311.893V293.512H313.279C313.932 293.512 314.45 293.344 314.833 293.008C315.215 292.672 315.407 292.215 315.407 291.636C315.407 291.113 315.229 290.717 314.875 290.446C314.529 290.166 314.03 290.026 313.377 290.026C312.313 290.026 311.393 290.404 310.619 291.16L310.185 290.25C310.567 289.858 311.048 289.555 311.627 289.34C312.205 289.116 312.812 289.004 313.447 289.004C314.417 289.004 315.178 289.228 315.729 289.676C316.279 290.124 316.555 290.745 316.555 291.538C316.555 292.145 316.382 292.667 316.037 293.106C315.691 293.535 315.225 293.829 314.637 293.988V293.834C315.337 293.946 315.878 294.226 316.261 294.674C316.643 295.113 316.835 295.668 316.835 296.34C316.835 297.199 316.531 297.88 315.925 298.384C315.327 298.879 314.501 299.126 313.447 299.126Z" fill="#8A8A8A"/>
</svg>
