<svg width="16" height="16" viewBox="0 0 16 16" fill="none" xmlns="http://www.w3.org/2000/svg">
<path fill-rule="evenodd" clip-rule="evenodd" d="M8.50873 3.33333C5.62183 3.33333 3.37237 5.45367 3.37237 7.96315C3.37237 8.69439 3.56009 9.3858 3.89613 10.0018C4.06811 10.3171 3.98176 10.635 3.93301 10.7782C3.87365 10.9526 3.77842 11.1248 3.68548 11.2743C3.50981 11.5569 3.26483 11.8788 3.04518 12.1674C3.0306 12.1865 3.01612 12.2056 3.00179 12.2244C2.96029 12.279 2.91993 12.3322 2.88089 12.384C3.0078 12.3334 3.14173 12.2784 3.28152 12.2203C3.31905 12.2048 3.35702 12.189 3.39533 12.173C3.7539 12.0239 4.1421 11.8624 4.48018 11.7512C4.66785 11.6895 4.86701 11.6339 5.05624 11.6066C5.2228 11.5825 5.49406 11.5618 5.75367 11.6793C5.78539 11.6937 5.81779 11.7084 5.85081 11.7234C6.23065 11.8957 6.69354 12.1056 7.1693 12.2795C7.70041 12.4736 8.17107 12.593 8.50873 12.593C11.3956 12.593 13.6451 10.4726 13.6451 7.96315C13.6451 5.45367 11.3956 3.33333 8.50873 3.33333ZM2.01747 7.96315C2.01747 4.6223 4.97387 2 8.50873 2C12.0436 2 15 4.6223 15 7.96315C15 11.304 12.0436 13.9263 8.50873 13.9263C7.91823 13.9263 7.25898 13.7346 6.69762 13.5294C6.17063 13.3368 5.66231 13.1061 5.28719 12.9359C5.27878 12.9321 5.27043 12.9283 5.26215 12.9245C5.2593 12.9249 5.25629 12.9253 5.25312 12.9258C5.17825 12.9366 5.06537 12.9646 4.90977 13.0158C4.62459 13.1096 4.28647 13.2501 3.91495 13.4045C3.87958 13.4192 3.84391 13.434 3.80796 13.4489C3.4145 13.6122 2.97975 13.7902 2.60859 13.8953C2.4245 13.9474 2.21681 13.9934 2.0153 13.9993C1.83303 14.0047 1.51064 13.982 1.25518 13.739C0.947943 13.4468 0.986349 13.071 1.02766 12.8935C1.07221 12.7021 1.16524 12.5195 1.24997 12.3739C1.42388 12.075 1.68573 11.7296 1.91704 11.4255L1.94277 11.3917C2.17899 11.0811 2.38847 10.8057 2.52964 10.5786C2.56241 10.5259 2.58724 10.4823 2.60571 10.4474C2.22852 9.69176 2.01747 8.84996 2.01747 7.96315ZM2.65253 10.3394C2.65289 10.3392 2.652 10.3436 2.64878 10.3532C2.65055 10.3444 2.65217 10.3396 2.65253 10.3394Z" fill="#7C7B7B"/>
</svg>
