<svg width="32" height="31" viewBox="0 0 32 31" fill="none" xmlns="http://www.w3.org/2000/svg">
<g filter="url(#filter0_dii_36_1396)">
<path fill-rule="evenodd" clip-rule="evenodd" d="M15.8043 6.5C11.2515 6.5 7.60945 10.0804 7.60945 14.4378C7.60945 15.702 7.91382 16.8952 8.45561 17.955C8.69645 18.426 8.57834 18.9028 8.50431 19.1348C8.41569 19.4125 8.27159 19.692 8.12616 19.9417C7.85153 20.4131 7.46738 20.9517 7.11884 21.4403C7.09616 21.4721 7.07364 21.5037 7.0513 21.535C6.899 21.7487 6.75535 21.9513 6.62486 22.1411C6.9085 22.0256 7.21855 21.8902 7.54863 21.744C7.60799 21.7178 7.66801 21.6911 7.72855 21.6643C8.29593 21.4125 8.90832 21.1407 9.44145 20.9536C9.73719 20.8498 10.0502 20.7566 10.3473 20.7108C10.6105 20.6702 11.0335 20.6369 11.4342 20.8304C11.4844 20.8547 11.5357 20.8795 11.5879 20.9048C12.1885 21.1955 12.9222 21.5506 13.6762 21.8446C14.518 22.1728 15.2661 22.3756 15.8043 22.3756C20.3572 22.3756 23.9992 18.7952 23.9992 14.4378C23.9992 10.0804 20.3572 6.5 15.8043 6.5ZM5.45172 22.4996C5.45172 22.4996 5.45577 22.4994 5.46275 22.5001C5.45503 22.5001 5.45172 22.4996 5.45172 22.4996ZM5.60945 14.4378C5.60945 8.92277 10.2008 4.5 15.8043 4.5C21.4079 4.5 25.9992 8.92277 25.9992 14.4378C25.9992 19.9529 21.4079 24.3756 15.8043 24.3756C14.8746 24.3756 13.8357 24.0534 12.9497 23.7079C12.1178 23.3836 11.3154 22.995 10.7221 22.7077C10.7059 22.6998 10.6898 22.692 10.6739 22.6843C10.6672 22.6852 10.66 22.6863 10.6521 22.6875C10.5315 22.7061 10.351 22.7539 10.1039 22.8407C9.65127 22.9996 9.11495 23.2374 8.52777 23.4977C8.47175 23.5226 8.41526 23.5476 8.35834 23.5728C7.73575 23.8485 7.0504 24.1478 6.46586 24.3244C6.17604 24.412 5.84993 24.4889 5.53395 24.4989C5.24188 24.5081 4.74754 24.466 4.36471 24.0776C3.92511 23.6315 3.98048 23.0684 4.03993 22.7958C4.10525 22.4964 4.24362 22.204 4.37602 21.9612C4.64637 21.4655 5.05541 20.8894 5.42266 20.3742L5.46582 20.3136C5.83726 19.7926 6.17157 19.3237 6.39798 18.935C6.4734 18.8055 6.52494 18.7047 6.55838 18.6298C5.94954 17.3557 5.60945 15.9346 5.60945 14.4378ZM6.60808 18.491C6.60808 18.491 6.60763 18.4975 6.60336 18.5124C6.60538 18.4988 6.60808 18.491 6.60808 18.491Z" fill="url(#paint0_linear_36_1396)"/>
<path d="M7.60945 14.4378C7.60945 10.0804 11.2515 6.5 15.8043 6.5C20.3572 6.5 23.9992 10.0804 23.9992 14.4378C23.9992 18.7952 20.3572 22.3756 15.8043 22.3756C15.2661 22.3756 14.518 22.1728 13.6762 21.8446C12.9222 21.5506 12.1885 21.1955 11.5879 20.9048L11.4342 20.8304C11.0335 20.6369 10.6105 20.6702 10.3473 20.7108C10.0502 20.7566 9.73719 20.8498 9.44145 20.9536C8.90832 21.1407 8.29593 21.4125 7.72855 21.6643L7.54863 21.744C7.21855 21.8902 6.9085 22.0256 6.62486 22.1411C6.75535 21.9513 6.899 21.7487 7.0513 21.535L7.11884 21.4403C7.46738 20.9517 7.85153 20.4131 8.12616 19.9417C8.27159 19.692 8.41569 19.4125 8.50431 19.1348C8.57834 18.9028 8.69645 18.426 8.45561 17.955C7.91382 16.8952 7.60945 15.702 7.60945 14.4378Z" fill="url(#paint1_linear_36_1396)"/>
</g>
<defs>
<filter id="filter0_dii_36_1396" x="0" y="0.5" width="31.9992" height="30" filterUnits="userSpaceOnUse" color-interpolation-filters="sRGB">
<feFlood flood-opacity="0" result="BackgroundImageFix"/>
<feColorMatrix in="SourceAlpha" type="matrix" values="0 0 0 0 0 0 0 0 0 0 0 0 0 0 0 0 0 0 127 0" result="hardAlpha"/>
<feOffset dx="1" dy="1"/>
<feGaussianBlur stdDeviation="2.5"/>
<feComposite in2="hardAlpha" operator="out"/>
<feColorMatrix type="matrix" values="0 0 0 0 0.945098 0 0 0 0 0.466667 0 0 0 0 0.2 0 0 0 0.35 0"/>
<feBlend mode="normal" in2="BackgroundImageFix" result="effect1_dropShadow_36_1396"/>
<feBlend mode="normal" in="SourceGraphic" in2="effect1_dropShadow_36_1396" result="shape"/>
<feColorMatrix in="SourceAlpha" type="matrix" values="0 0 0 0 0 0 0 0 0 0 0 0 0 0 0 0 0 0 127 0" result="hardAlpha"/>
<feOffset dx="-2" dy="-2"/>
<feGaussianBlur stdDeviation="2"/>
<feComposite in2="hardAlpha" operator="arithmetic" k2="-1" k3="1"/>
<feColorMatrix type="matrix" values="0 0 0 0 0.920833 0 0 0 0 0.43985 0 0 0 0 0.168819 0 0 0 1 0"/>
<feBlend mode="normal" in2="shape" result="effect2_innerShadow_36_1396"/>
<feColorMatrix in="SourceAlpha" type="matrix" values="0 0 0 0 0 0 0 0 0 0 0 0 0 0 0 0 0 0 127 0" result="hardAlpha"/>
<feOffset/>
<feGaussianBlur stdDeviation="0.5"/>
<feComposite in2="hardAlpha" operator="arithmetic" k2="-1" k3="1"/>
<feColorMatrix type="matrix" values="0 0 0 0 0.983333 0 0 0 0 0.883689 0 0 0 0 0.827639 0 0 0 0.5 0"/>
<feBlend mode="normal" in2="effect2_innerShadow_36_1396" result="effect3_innerShadow_36_1396"/>
</filter>
<linearGradient id="paint0_linear_36_1396" x1="5" y1="2" x2="21" y2="25" gradientUnits="userSpaceOnUse">
<stop stop-color="#FBC8AB"/>
<stop offset="1" stop-color="#FF964A"/>
</linearGradient>
<linearGradient id="paint1_linear_36_1396" x1="5" y1="2" x2="21" y2="25" gradientUnits="userSpaceOnUse">
<stop stop-color="#FBC8AB"/>
<stop offset="1" stop-color="#FF964A"/>
</linearGradient>
</defs>
</svg>
