<svg width="48" height="49" viewBox="0 0 48 49" fill="none" xmlns="http://www.w3.org/2000/svg">
<rect y="0.5" width="48" height="48" rx="8" fill="#F8F8F8"/>
<g filter="url(#filter0_dii_36_1395)">
<path fill-rule="evenodd" clip-rule="evenodd" d="M24.8043 16.5C20.2515 16.5 16.6094 20.0804 16.6094 24.4378C16.6094 25.702 16.9138 26.8952 17.4556 27.955C17.6965 28.426 17.5783 28.9028 17.5043 29.1348C17.4157 29.4125 17.2716 29.692 17.1262 29.9417C16.8515 30.4131 16.4674 30.9517 16.1188 31.4403C16.0962 31.4721 16.0736 31.5037 16.0513 31.535C15.899 31.7487 15.7554 31.9513 15.6249 32.1411C15.9085 32.0256 16.2186 31.8902 16.5486 31.744C16.608 31.7178 16.668 31.6911 16.7285 31.6643C17.2959 31.4125 17.9083 31.1407 18.4414 30.9536C18.7372 30.8498 19.0502 30.7566 19.3473 30.7108C19.6105 30.6702 20.0335 30.6369 20.4342 30.8304C20.4844 30.8547 20.5357 30.8795 20.5879 30.9048C21.1885 31.1955 21.9222 31.5506 22.6762 31.8446C23.518 32.1728 24.2661 32.3756 24.8043 32.3756C29.3572 32.3756 32.9992 28.7952 32.9992 24.4378C32.9992 20.0804 29.3572 16.5 24.8043 16.5ZM14.4517 32.4996C14.4517 32.4996 14.4558 32.4994 14.4628 32.5001C14.455 32.5001 14.4517 32.4996 14.4517 32.4996ZM14.6094 24.4378C14.6094 18.9228 19.2008 14.5 24.8043 14.5C30.4079 14.5 34.9992 18.9228 34.9992 24.4378C34.9992 29.9529 30.4079 34.3756 24.8043 34.3756C23.8746 34.3756 22.8357 34.0534 21.9497 33.7079C21.1178 33.3836 20.3154 32.995 19.7221 32.7077C19.7059 32.6998 19.6898 32.692 19.6739 32.6843C19.6672 32.6852 19.66 32.6863 19.6521 32.6875C19.5315 32.7061 19.351 32.7539 19.1039 32.8407C18.6513 32.9996 18.1149 33.2374 17.5278 33.4977C17.4718 33.5226 17.4153 33.5476 17.3583 33.5728C16.7357 33.8485 16.0504 34.1478 15.4659 34.3244C15.176 34.412 14.8499 34.4889 14.5339 34.4989C14.2419 34.5081 13.7475 34.466 13.3647 34.0776C12.9251 33.6315 12.9805 33.0684 13.0399 32.7958C13.1052 32.4964 13.2436 32.204 13.376 31.9612C13.6464 31.4655 14.0554 30.8894 14.4227 30.3742L14.4658 30.3136C14.8373 29.7926 15.1716 29.3237 15.398 28.935C15.4734 28.8055 15.5249 28.7047 15.5584 28.6298C14.9495 27.3557 14.6094 25.9346 14.6094 24.4378ZM15.6081 28.491C15.6081 28.491 15.6076 28.4975 15.6034 28.5124C15.6054 28.4988 15.6081 28.491 15.6081 28.491Z" fill="url(#paint0_linear_36_1395)"/>
<path d="M16.6094 24.4378C16.6094 20.0804 20.2515 16.5 24.8043 16.5C29.3572 16.5 32.9992 20.0804 32.9992 24.4378C32.9992 28.7952 29.3572 32.3756 24.8043 32.3756C24.2661 32.3756 23.518 32.1728 22.6762 31.8446C21.9222 31.5506 21.1885 31.1955 20.5879 30.9048L20.4342 30.8304C20.0335 30.6369 19.6105 30.6702 19.3473 30.7108C19.0502 30.7566 18.7372 30.8498 18.4414 30.9536C17.9083 31.1407 17.2959 31.4125 16.7285 31.6643L16.5486 31.744C16.2186 31.8902 15.9085 32.0256 15.6249 32.1411C15.7554 31.9513 15.899 31.7487 16.0513 31.535L16.1188 31.4403C16.4674 30.9517 16.8515 30.4131 17.1262 29.9417C17.2716 29.692 17.4157 29.4125 17.5043 29.1348C17.5783 28.9028 17.6965 28.426 17.4556 27.955C16.9138 26.8952 16.6094 25.702 16.6094 24.4378Z" fill="url(#paint1_linear_36_1395)"/>
</g>
<defs>
<filter id="filter0_dii_36_1395" x="9" y="10.5" width="31.9992" height="30" filterUnits="userSpaceOnUse" color-interpolation-filters="sRGB">
<feFlood flood-opacity="0" result="BackgroundImageFix"/>
<feColorMatrix in="SourceAlpha" type="matrix" values="0 0 0 0 0 0 0 0 0 0 0 0 0 0 0 0 0 0 127 0" result="hardAlpha"/>
<feOffset dx="1" dy="1"/>
<feGaussianBlur stdDeviation="2.5"/>
<feComposite in2="hardAlpha" operator="out"/>
<feColorMatrix type="matrix" values="0 0 0 0 0.945098 0 0 0 0 0.466667 0 0 0 0 0.2 0 0 0 0.35 0"/>
<feBlend mode="normal" in2="BackgroundImageFix" result="effect1_dropShadow_36_1395"/>
<feBlend mode="normal" in="SourceGraphic" in2="effect1_dropShadow_36_1395" result="shape"/>
<feColorMatrix in="SourceAlpha" type="matrix" values="0 0 0 0 0 0 0 0 0 0 0 0 0 0 0 0 0 0 127 0" result="hardAlpha"/>
<feOffset dx="-2" dy="-2"/>
<feGaussianBlur stdDeviation="2"/>
<feComposite in2="hardAlpha" operator="arithmetic" k2="-1" k3="1"/>
<feColorMatrix type="matrix" values="0 0 0 0 0.920833 0 0 0 0 0.43985 0 0 0 0 0.168819 0 0 0 1 0"/>
<feBlend mode="normal" in2="shape" result="effect2_innerShadow_36_1395"/>
<feColorMatrix in="SourceAlpha" type="matrix" values="0 0 0 0 0 0 0 0 0 0 0 0 0 0 0 0 0 0 127 0" result="hardAlpha"/>
<feOffset/>
<feGaussianBlur stdDeviation="0.5"/>
<feComposite in2="hardAlpha" operator="arithmetic" k2="-1" k3="1"/>
<feColorMatrix type="matrix" values="0 0 0 0 0.983333 0 0 0 0 0.883689 0 0 0 0 0.827639 0 0 0 0.5 0"/>
<feBlend mode="normal" in2="effect2_innerShadow_36_1395" result="effect3_innerShadow_36_1395"/>
</filter>
<linearGradient id="paint0_linear_36_1395" x1="14" y1="12" x2="30" y2="35" gradientUnits="userSpaceOnUse">
<stop stop-color="#FBC8AB"/>
<stop offset="1" stop-color="#FF964A"/>
</linearGradient>
<linearGradient id="paint1_linear_36_1395" x1="14" y1="12" x2="30" y2="35" gradientUnits="userSpaceOnUse">
<stop stop-color="#FBC8AB"/>
<stop offset="1" stop-color="#FF964A"/>
</linearGradient>
</defs>
</svg>
