<svg width="16" height="16" viewBox="0 0 16 16" fill="none" xmlns="http://www.w3.org/2000/svg">
<path d="M10.2501 12.9001C10.2501 13.4571 10.0131 13.9912 9.59112 14.385C9.16917 14.7789 8.59689 15.0001 8.00016 15.0001C7.40343 15.0001 6.83115 14.7789 6.4092 14.385C5.98725 13.9912 5.7502 13.4571 5.7502 12.9001M8.5409 3.10221L7.44142 3.10011C4.93346 3.09451 2.75625 4.99641 2.739 7.30011V9.95311C2.739 10.5061 2.664 11.0458 2.34076 11.5057L2.12551 11.8123C1.79777 12.2771 2.15026 12.9001 2.739 12.9001H13.2613C13.8501 12.9001 14.2018 12.2771 13.8748 11.8123L13.6596 11.5057C13.3371 11.0458 13.2613 10.5054 13.2613 9.95241V7.30081C13.2313 4.99641 11.0489 3.10781 8.5409 3.10221V3.10221Z" stroke="#7C7B7B" stroke-width="1.5" stroke-linecap="round" stroke-linejoin="round"/>
<path d="M7.99997 1C8.39779 1 8.77932 1.1475 9.06062 1.41005C9.34191 1.6726 9.49995 2.0287 9.49995 2.4V3.1H6.5V2.4C6.5 2.0287 6.65803 1.6726 6.93933 1.41005C7.22063 1.1475 7.60216 1 7.99997 1Z" stroke="#7C7B7B" stroke-width="1.5" stroke-linecap="round" stroke-linejoin="round"/>
</svg>
