<svg width="17" height="16" viewBox="0 0 17 16" fill="none" xmlns="http://www.w3.org/2000/svg">
<g clip-path="url(#clip0_21_2525)">
<path d="M8.64667 1.3335H8.35333C7.99971 1.3335 7.66057 1.47397 7.41053 1.72402C7.16048 1.97407 7.02 2.31321 7.02 2.66683V2.78683C7.01976 3.02065 6.95804 3.25029 6.84103 3.45272C6.72401 3.65515 6.55583 3.82325 6.35333 3.94016L6.06667 4.10683C5.86398 4.22385 5.63405 4.28546 5.4 4.28546C5.16595 4.28546 4.93603 4.22385 4.73333 4.10683L4.63333 4.0535C4.32738 3.877 3.96389 3.82913 3.62267 3.92037C3.28145 4.01161 2.99037 4.23452 2.81333 4.54016L2.66667 4.7935C2.49018 5.09945 2.4423 5.46294 2.53354 5.80416C2.62478 6.14539 2.84769 6.43646 3.15333 6.6135L3.25333 6.68016C3.45485 6.7965 3.62241 6.96356 3.73937 7.16472C3.85632 7.36588 3.9186 7.59414 3.92 7.82683V8.16683C3.92093 8.40178 3.85977 8.6328 3.7427 8.8365C3.62563 9.04021 3.45681 9.20936 3.25333 9.32683L3.15333 9.38683C2.84769 9.56386 2.62478 9.85494 2.53354 10.1962C2.4423 10.5374 2.49018 10.9009 2.66667 11.2068L2.81333 11.4602C2.99037 11.7658 3.28145 11.9887 3.62267 12.08C3.96389 12.1712 4.32738 12.1233 4.63333 11.9468L4.73333 11.8935C4.93603 11.7765 5.16595 11.7149 5.4 11.7149C5.63405 11.7149 5.86398 11.7765 6.06667 11.8935L6.35333 12.0602C6.55583 12.1771 6.72401 12.3452 6.84103 12.5476C6.95804 12.75 7.01976 12.9797 7.02 13.2135V13.3335C7.02 13.6871 7.16048 14.0263 7.41053 14.2763C7.66057 14.5264 7.99971 14.6668 8.35333 14.6668H8.64667C9.00029 14.6668 9.33943 14.5264 9.58948 14.2763C9.83952 14.0263 9.98 13.6871 9.98 13.3335V13.2135C9.98024 12.9797 10.042 12.75 10.159 12.5476C10.276 12.3452 10.4442 12.1771 10.6467 12.0602L10.9333 11.8935C11.136 11.7765 11.366 11.7149 11.6 11.7149C11.834 11.7149 12.064 11.7765 12.2667 11.8935L12.3667 11.9468C12.6726 12.1233 13.0361 12.1712 13.3773 12.08C13.7186 11.9887 14.0096 11.7658 14.1867 11.4602L14.3333 11.2002C14.5098 10.8942 14.5577 10.5307 14.4665 10.1895C14.3752 9.84827 14.1523 9.5572 13.8467 9.38016L13.7467 9.32683C13.5432 9.20936 13.3744 9.04021 13.2573 8.8365C13.1402 8.6328 13.0791 8.40178 13.08 8.16683V7.8335C13.0791 7.59855 13.1402 7.36753 13.2573 7.16382C13.3744 6.96012 13.5432 6.79097 13.7467 6.6735L13.8467 6.6135C14.1523 6.43646 14.3752 6.14539 14.4665 5.80416C14.5577 5.46294 14.5098 5.09945 14.3333 4.7935L14.1867 4.54016C14.0096 4.23452 13.7186 4.01161 13.3773 3.92037C13.0361 3.82913 12.6726 3.877 12.3667 4.0535L12.2667 4.10683C12.064 4.22385 11.834 4.28546 11.6 4.28546C11.366 4.28546 11.136 4.22385 10.9333 4.10683L10.6467 3.94016C10.4442 3.82325 10.276 3.65515 10.159 3.45272C10.042 3.25029 9.98024 3.02065 9.98 2.78683V2.66683C9.98 2.31321 9.83952 1.97407 9.58948 1.72402C9.33943 1.47397 9.00029 1.3335 8.64667 1.3335Z" stroke="#334155" stroke-width="2" stroke-linecap="round" stroke-linejoin="round"/>
<path d="M8.5 10.0002C9.60457 10.0002 10.5 9.10481 10.5 8.00024C10.5 6.89567 9.60457 6.00024 8.5 6.00024C7.39543 6.00024 6.5 6.89567 6.5 8.00024C6.5 9.10481 7.39543 10.0002 8.5 10.0002Z" stroke="#334155" stroke-width="2" stroke-linecap="round" stroke-linejoin="round"/>
</g>
<defs>
<clipPath id="clip0_21_2525">
<rect width="16" height="16" fill="white" transform="translate(0.5 0.000244141)"/>
</clipPath>
</defs>
</svg>
