<svg width="16" height="16" viewBox="0 0 16 16" fill="none" xmlns="http://www.w3.org/2000/svg">
<path fill-rule="evenodd" clip-rule="evenodd" d="M3.86358 4.45978C3.04814 5.41166 2.55556 6.64831 2.55556 8C2.55556 11.0069 4.99312 13.4444 8 13.4444C8.79946 13.4444 9.55868 13.2721 10.2425 12.9626C10.2289 12.8481 10.2183 12.7241 10.2074 12.5961C10.1582 12.0194 10.1019 11.3601 9.72839 11.1111C8.69136 10.4198 8.69136 9.7284 8.69136 9.38272C8.69136 8.55309 9.72839 8 10.4198 8.34568C10.4198 8.69136 10.8346 9.38271 11.1111 9.38272C11.3555 9.38272 11.4271 9.55556 11.5703 9.90124C11.6296 10.0444 11.7012 10.2173 11.8025 10.4198C11.9608 10.7364 12.2022 10.9927 12.423 11.1755C13.0658 10.2817 13.4444 9.18504 13.4444 8C13.4444 5.49095 11.7472 3.37831 9.43821 2.74753C9.45489 3.08832 9.25365 3.28956 9.08025 3.46297C8.8642 3.67901 8.69136 3.85185 9.03704 4.19753C9.32649 4.48699 9.10181 5.09026 8.89786 5.63788C8.81211 5.86811 8.73003 6.08851 8.69136 6.27161C8.60231 6.69321 8.16333 7.49099 8 7.65432C7.90882 7.7455 7.7455 7.86072 7.54809 8L7.54808 8C6.99705 8.38876 6.18043 8.96489 5.92593 9.7284C4.84629 9.18858 4.88585 7.87123 4.90395 7.26855C4.90903 7.09937 4.91242 6.9865 4.88889 6.96297C4.47024 6.54431 4.43186 6.25242 4.38996 5.93376C4.36267 5.72619 4.33388 5.50727 4.19753 5.23457L4.19753 5.23456C3.96377 4.76705 3.88809 4.61568 3.86358 4.45978ZM8 1C4.13401 1 1 4.13401 1 8C1 11.866 4.13401 15 8 15C11.866 15 15 11.866 15 8C15 4.13401 11.866 1 8 1Z" fill="#8A8A8A"/>
</svg>
